<svg id="Livello_1" data-name="Livello 1" xmlns="http://www.w3.org/2000/svg" viewBox="0 0 92.72 88.51">
  <defs>
    <style>
      .cls-1 {
        isolation: isolate;
      }

      .cls-2 {
        fill: #9bc53d;
      }
    </style>
  </defs>
  <title>Tavola disegno 11</title>
  <g id="_" data-name=" " class="cls-1">
    <g class="cls-1">
      <path class="cls-2" d="M57.48,29.88a11.15,11.15,0,0,1-1.23,5.47A24.82,24.82,0,0,1,51.13,41a14.8,14.8,0,0,0-3.45,4.46,10.51,10.51,0,0,0-1.54,4.7c0,1.52-.87,2.29-2.6,2.29-1.34,0-2.18-.47-2.5-1.4a11.35,11.35,0,0,1-.54-2.67,24.19,24.19,0,0,1-.17-2.5,15.94,15.94,0,0,1,1.33-6.35c.36-.82.75-1.65,1.14-2.5s.72-1.59,1-2.24a5,5,0,0,0,.36-1.72,3.68,3.68,0,0,0-.92-2.38,4.19,4.19,0,0,0-3.35-1.11,10.4,10.4,0,0,0-4.07.89h-.55L38.45,21a22,22,0,0,1,6.49-1.06,15.4,15.4,0,0,1,7,1.43,10,10,0,0,1,4.19,3.73A9.21,9.21,0,0,1,57.48,29.88ZM51.06,61.23a7.12,7.12,0,0,1-2.14,5.18,7,7,0,0,1-5.14,2.17,7.25,7.25,0,0,1-5.23-2.16,7.21,7.21,0,0,1,0-10.41,7.3,7.3,0,0,1,5.23-2.13,6.94,6.94,0,0,1,5.14,2.17A7.11,7.11,0,0,1,51.06,61.23Z"/>
    </g>
  </g>
</svg>
