<svg id="Livello_1" data-name="Livello 1" xmlns="http://www.w3.org/2000/svg" viewBox="0 0 305 301">
  <defs>
    <style>
      .cls-1 {
        fill: #fddb06;
      }

      .cls-2 {
        fill: #9bc53d;
      }

      .cls-2, .cls-3, .cls-4 {
        fill-rule: evenodd;
      }

      .cls-3 {
        fill: #224fdd;
      }

      .cls-4 {
        fill: #e05acd;
      }
    </style>
  </defs>
  <title>Tavola disegno 6</title>
  <rect class="cls-1" x="29.5" y="27.5" width="246" height="246" rx="15.5"/>
  <path class="cls-2" d="M83.94,139c-15.64-.59-35.67-15.25-40.36-30.23C38.46,92.46,46,75.14,60.08,70.74c6.8-2.13,13-1.56,18.33,1.24-7,12.66-7.46,28.75-2.17,44C73.63,126.8,77.55,134.55,83.94,139Zm14.4-30.43a2.25,2.25,0,0,1,3,1.56,2.42,2.42,0,1,1-4.54,1.42A2.25,2.25,0,0,1,98.34,108.6Zm44-13.77a2.23,2.23,0,0,0-1.56,3,2.66,2.66,0,0,0,3.12,2,3.07,3.07,0,0,0,1.87-3.58A2.65,2.65,0,0,0,142.37,94.83ZM106,54.89C75.54,64.41,71.83,94,80.15,115.79,76.58,129.86,83.91,140.53,103,141c-.08,4.51-5.89,9.82-3.4,13a3.49,3.49,0,0,0,4,1.73c7.24-.77,15.07-9.2,15.21-16.72-.52-4.82-4.92-10.92-7.22-16.68-5.4-17.25,22.29-25.92,27.69-8.67,1.39,6,1.71,13.42,4,17.68,4.4,6.1,15.18,8.7,21.56,5.21a4,4,0,0,0,2.78-3.86c-.23-3.92-8-5-10.67-8.62,15.4-11.3,15.79-24.38,4.84-33.91C155.81,67.69,135.91,45.51,106,54.89Zm2.78,77.37a5.28,5.28,0,0,1,6.56,3.43c2.87,7.58-6.32,16.43-12.05,17.23-5.28.66,4.79-7,2.52-14.24C104.9,136,106.46,133,108.73,132.26Zm38.59-12.07a5.27,5.27,0,0,0-3.44,6.55c2,7.86,15,9.76,19.73,7.29s-7.92-3-9.74-10.41A5.28,5.28,0,0,0,147.32,120.19Zm-50.6-13.57a5.39,5.39,0,0,1,7,3.29,5.71,5.71,0,1,1-10.89,3.41A5.39,5.39,0,0,1,96.72,106.62ZM143,92.13c-3.18,1-5.19,4.12-4.34,6.84a5.91,5.91,0,0,0,7.61,3.6A5.78,5.78,0,0,0,150,95.42C149.18,92.69,145.74,91.28,143,92.13Zm1,59c-.71-2.27-1.76-2.44-3.55-3.38.5-11.12-2.62-29.08-3.9-33.16-4.26-13.62-26.51-6.66-22.24,7,1.27,4.08,9.4,20.48,16.15,29.33-1.39,1.93-2.15,2.67-1.44,4.93C130.34,159.89,145.31,155.2,144,151.12Zm-8.47-30.25c-6.13-2.06-12.94.07-16.34,5.12C120.61,116.09,128.33,113.67,135.57,120.87Zm1.62,10c-5.68-2.21-10.67-.65-14.07,4.41C124.65,125.79,130.55,123.94,137.19,130.83Zm.88,9.2c-4.48-1.59-7.2-.74-10.44,3.26C129.13,135.35,132.77,134.21,138.07,140Zm1.14,11.6c.43,1.36-5,3.07-5.44,1.7S138.79,150.27,139.21,151.63Zm32.33-40c12.51-9.4,20.62-32.86,15.93-47.84-5.11-16.34-20.72-26.41-35.25-21.87a25,25,0,0,0-14.35,11.47c13,6.41,23,19.23,26.88,34.95C173,95.69,174.69,104.15,171.54,111.61Z"/>
  <path class="cls-3" d="M166,170.88a6.86,6.86,0,0,1-7,3.84c-4.41.24,1.09,9.17,7,8.32,9.71-1.44,6.57-7.37,17.46-1.22,11.17,6,34.94,10.85,51.66-.17A43.63,43.63,0,0,0,253.32,159c-2.11.26-4,.34-5.9-1.44,2.65-.6,6.27-1.46,7.17-4.72a26.35,26.35,0,0,0-6.42-20.13c-13.31-15.59-36-13.59-46.29,3.1S192.24,174.9,185.73,172c-6.77-2.76-2.8-4.24-6.46-12.11-2.61-6.27-10-4.81-8.54-2,1.58,2.39-.2,5.46-2.24,7.57C171.73,168.62,172,171.88,166,170.88Zm79.81-23.29a2,2,0,0,1,2.64.55,1.77,1.77,0,0,1-.71,2.37,1.49,1.49,0,0,1-2.2-.45A1.78,1.78,0,0,1,245.8,147.59Z"/>
  <path class="cls-4" d="M123.21,198.2c3.92-.8,8.09-1.52,12.5-.2l-2.16,8.12c4.46,3,1.5,10.06,13.42,13.64l-2.36,6.92c-11.8,3.52-15.82,6.55-29,6.26-2.15,5.29-4.07,9.8-3.71,16.12-2.21.75-5.4.08-7.86-2.08-.49-4.95-3.34-8.63-4.19-14.26a80.41,80.41,0,0,1-19.08-5.17c-2.2,3.58-4.15,7.23-7,10.31-2.16-.36-4.9-.62-6.15-2.12.81-7.39-2.51-9.52-.58-16.86-7.21-8.94-3-28.59,6.52-33.93a9.59,9.59,0,0,1-.23-4.87c.13-1.38.27-2.75-1.47-3.55a1.51,1.51,0,1,1,1.37-2.7c3.74,1.69,3.55,4.18,3,6.85,0,1.11-.36,2.15.26,2.9C88.92,179.7,114.12,189,123.21,198.2Zm8.73,17a1.86,1.86,0,0,1,1.27,2.36,2.1,2.1,0,0,1-2.44,1.53,2.08,2.08,0,0,1-1.19-2.62A1.85,1.85,0,0,1,131.94,215.24Z"/>
</svg>
