<svg id="Livello_1" data-name="Livello 1" xmlns="http://www.w3.org/2000/svg" viewBox="0 0 137.72 131.51">
  <defs>
    <style>
      .cls-1, .cls-2 {
        fill: #5bc0eb;
      }

      .cls-1 {
        fill-rule: evenodd;
      }

      .cls-3 {
        fill: #fa7921;
      }

      .cls-4 {
        fill: #9bc53d;
      }

      .cls-5 {
        fill: #e55934;
      }

      .cls-6 {
        fill: #ffde00;
      }

      .cls-7 {
        fill: #f2bd00;
      }

      .cls-8 {
        fill: #fcf7f7;
      }
    </style>
  </defs>
  <title>Tavola disegno 6</title>
  <g>
    <g id="noun_Home_2186916" data-name="noun Home 2186916">
      <g id="Group_36" data-name="Group 36">
        <path id="Path_49" data-name="Path 49" class="cls-1" d="M71.08,15.87,97.73,38.36A2.59,2.59,0,0,1,96.06,43H90v22.7a2.75,2.75,0,0,1-2.7,2.7H78.15a2.76,2.76,0,0,1-2.7-2.71V51.48H63V65.64a2.58,2.58,0,0,1-2.45,2.7H51.08a2.75,2.75,0,0,1-2.5-2.71V43h-6c-2.5,0-3.75-3.13-1.67-4.59L67.53,15.87A2.84,2.84,0,0,1,71.08,15.87Z"/>
      </g>
    </g>
    <g id="Group_38" data-name="Group 38">
      <g id="noun_Home_2186916-2" data-name="noun Home 2186916">
        <g id="Group_36-2" data-name="Group 36">
          <path id="Path_49-2" data-name="Path 49" class="cls-1" d="M70.74,16.28,97.39,38.77a2.59,2.59,0,0,1-1.67,4.59h-6v22.7A2.76,2.76,0,0,1,87,68.76H77.82a2.76,2.76,0,0,1-2.71-2.71V51.89H62.62V66.05a2.59,2.59,0,0,1-2.46,2.71H50.75a2.72,2.72,0,0,1-2.5-2.71V43.36h-6c-2.5,0-3.75-3.13-1.67-4.59L67.2,16.28A2.83,2.83,0,0,1,70.74,16.28Z"/>
        </g>
      </g>
      <g id="Group_37" data-name="Group 37">
        <g>
          <path id="Path_1" data-name="Path 1" class="cls-2" d="M97.53,96.65a12.78,12.78,0,0,1,3.71-2.4,8.92,8.92,0,0,1,3.93-.53,6.75,6.75,0,0,1,5,2.43,8,8,0,0,1,1.47,5.76l-.78,10.18a2.54,2.54,0,0,1-2.73,2.34l-4.73-.36a2.55,2.55,0,0,1-2.34-2.73l.74-9.61a2.26,2.26,0,0,0-.41-1.63,1.76,1.76,0,0,0-1.34-.69,2.87,2.87,0,0,0-1,.11,3.75,3.75,0,0,0-1,.4l-.85,11.13a2.54,2.54,0,0,1-2.73,2.34L89.83,113a2.55,2.55,0,0,1-2.34-2.73l.74-9.61a2.44,2.44,0,0,0-.38-1.6,1.71,1.71,0,0,0-1.37-.72,2.72,2.72,0,0,0-1,.12,4.11,4.11,0,0,0-1,.42L83.69,110A2.54,2.54,0,0,1,81,112.35l-5.3-.41a2.54,2.54,0,0,1-2.34-2.72l1.16-15.13a2.54,2.54,0,0,1,2.73-2.34l5.3.41a2.53,2.53,0,0,1,2.33,2.72h0a8.17,8.17,0,0,1,6.43-2.22,8,8,0,0,1,3.78,1.14A7.27,7.27,0,0,1,97.53,96.65Z"/>
          <path id="Path_2" data-name="Path 2" class="cls-3" d="M64.75,92.94a11.6,11.6,0,0,1,5.79.27,9.25,9.25,0,0,1,4.57,3.13,12.21,12.21,0,0,1,2.49,5.53h0a.66.66,0,0,1-.52.77l-9.79,1.89a4.71,4.71,0,0,0,2.32,2,5.1,5.1,0,0,0,1.54.37,5.92,5.92,0,0,0,1.68-.09,8.34,8.34,0,0,0,1.57-.46,8.19,8.19,0,0,0,1.42-.71,6.53,6.53,0,0,0,1.18-.93h0a.71.71,0,0,1,1,0,.74.74,0,0,1,.19.36h0a5.18,5.18,0,0,1-1.08,4.27,9.9,9.9,0,0,1-2.05,1.88,13.75,13.75,0,0,1-5.28,2.1,14.17,14.17,0,0,1-3.31.3,12.15,12.15,0,0,1-3-.44,9.92,9.92,0,0,1-2.61-1.13,9.46,9.46,0,0,1-2.12-1.76,9.91,9.91,0,0,1-1.56-2.35,11.58,11.58,0,0,1-.92-2.87,10.58,10.58,0,0,1,.3-5.47,9.32,9.32,0,0,1,3-4.31A11.37,11.37,0,0,1,64.75,92.94ZM66,101.16l4.8-.93a3.86,3.86,0,0,0-1.16-2.16,2.16,2.16,0,0,0-1.94-.51,2.05,2.05,0,0,0-1.49,1.16,3.28,3.28,0,0,0-.25,2.22Z"/>
          <path id="Path_3" data-name="Path 3" class="cls-4" d="M44.84,96.13a12.79,12.79,0,0,1,3.52-2.68,8.93,8.93,0,0,1,3.88-.82,6.7,6.7,0,0,1,5.2,2,8,8,0,0,1,1.9,5.64v10.21a2.54,2.54,0,0,1-2.54,2.54H52.06a2.54,2.54,0,0,1-2.54-2.54h0v-9.64a2.33,2.33,0,0,0-.53-1.6,1.78,1.78,0,0,0-1.39-.59,2.93,2.93,0,0,0-1,.19,3.7,3.7,0,0,0-.93.47V110.5A2.54,2.54,0,0,1,43.16,113H38.42a2.54,2.54,0,0,1-2.54-2.54h0v-9.63a2.48,2.48,0,0,0-.5-1.58A1.75,1.75,0,0,0,34,98.68a3,3,0,0,0-1,.2,4.14,4.14,0,0,0-.93.49V110.5A2.54,2.54,0,0,1,29.52,113H24.2a2.54,2.54,0,0,1-2.54-2.54h0V95.33a2.54,2.54,0,0,1,2.54-2.54h5.32a2.54,2.54,0,0,1,2.54,2.54h0a8.74,8.74,0,0,1,10.09-1.86A7.16,7.16,0,0,1,44.84,96.13Z"/>
          <path id="Path_4" data-name="Path 4" class="cls-5" d="M118.1,93.75a12.38,12.38,0,0,1,4.46.79,10.42,10.42,0,0,1,3.52,2.17,10.09,10.09,0,0,1,2.3,3.33,11.22,11.22,0,0,1,0,8.41,10,10,0,0,1-2.27,3.32,10.48,10.48,0,0,1-3.51,2.17,12.59,12.59,0,0,1-4.5.79,12.42,12.42,0,0,1-5.65-1.3,9.82,9.82,0,0,1-4-3.67,10.52,10.52,0,0,1-1.43-5.5,10.72,10.72,0,0,1,1.4-5.47,9.6,9.6,0,0,1,3.92-3.71A12.13,12.13,0,0,1,118.1,93.75Zm0,12.62a2.32,2.32,0,0,0,.14-4.63h-.16a2.59,2.59,0,0,0-.92.17,1.9,1.9,0,0,0-.7.48,2.32,2.32,0,0,0-.47.74,2.73,2.73,0,0,0-.17.93,2.31,2.31,0,0,0,.64,1.67A2.21,2.21,0,0,0,118.1,106.37Z"/>
          <path id="Path_5" data-name="Path 5" class="cls-5" d="M25,94.53a2.49,2.49,0,0,1-3.22,1.39l-.07,0-.28-.11A5.4,5.4,0,0,0,19,95.39a2.05,2.05,0,0,0-1.2.42,1,1,0,0,0-.4.9,1.36,1.36,0,0,0,.78,1.18,5,5,0,0,0,1.05.36,16.19,16.19,0,0,0,1.68.31,9.21,9.21,0,0,1,4.82,1.93,5.44,5.44,0,0,1,1.78,3.8,5.73,5.73,0,0,1-2.15,5.13,11.1,11.1,0,0,1-6.4,2.3,21.91,21.91,0,0,1-2.56,0c-.91,0-1.87-.1-2.9-.21a27,27,0,0,1-3-.49l-.23,0a2.46,2.46,0,0,1-1.85-3,1.46,1.46,0,0,1,0-.2l0,0a2.48,2.48,0,0,1,3.13-1.58,2.39,2.39,0,0,1,.37.15l.26.13a6.26,6.26,0,0,0,3.1.6,2.35,2.35,0,0,0,1.42-.51,1.26,1.26,0,0,0,.47-1.08,1.43,1.43,0,0,0-.76-1.19,6.78,6.78,0,0,0-2.1-.67q-3.75-.68-5.25-2.2A5.49,5.49,0,0,1,7.51,98a5.33,5.33,0,0,1,2.21-4.87,13.37,13.37,0,0,1,7.17-2.24,26.64,26.64,0,0,1,4.89.06q.72.09,1.41.21a2.45,2.45,0,0,1,2,2.88,2.54,2.54,0,0,1-.13.45Z"/>
        </g>
        <g id="Group_1" data-name="Group 1">
          <circle id="Ellipse_1" data-name="Ellipse 1" class="cls-6" cx="118.2" cy="104.23" r="12.03"/>
          <path id="Path_6" data-name="Path 6" class="cls-7" d="M107.56,109.87a12,12,0,0,1,18.87-14.41"/>
          <path id="Path_7" data-name="Path 7" class="cls-7" d="M109.35,112.39a12.12,12.12,0,0,1-1.79-2.52"/>
          <circle id="Ellipse_2" data-name="Ellipse 2" cx="118.2" cy="104.23" r="5.64"/>
          <circle id="Ellipse_3" data-name="Ellipse 3" class="cls-8" cx="125.15" cy="97.84" r="4.89"/>
        </g>
      </g>
    </g>
  </g>
</svg>
