<svg id="Livello_1" data-name="Livello 1" xmlns="http://www.w3.org/2000/svg" viewBox="0 0 92.72 88.51">
  <defs>
    <style>
      .cls-1 {
        fill: #fa7921;
      }
    </style>
  </defs>
  <title>Tavola disegno 10</title>
  <g id="noun_setting_1337964" data-name="noun setting 1337964">
    <path id="Path_42" data-name="Path 42" class="cls-1" d="M70.69,35.88l-4.57-1.6a19.65,19.65,0,0,0-1.73-3.9l2.16-4.47a1,1,0,0,0-.19-1.15L61.7,20.11a1,1,0,0,0-1.14-.2L55.81,22.2a22,22,0,0,0-3.45-1.39l-1.76-5a1,1,0,0,0-1-.67H43.06a1,1,0,0,0-1,.67l-1.75,5a20.77,20.77,0,0,0-3.47,1.39l-4.75-2.29a1,1,0,0,0-1.14.2l-4.66,4.65a1,1,0,0,0-.19,1.15l2.16,4.47a20.88,20.88,0,0,0-1.73,3.9L22,35.87a1,1,0,0,0-.67.94v6.6a1,1,0,0,0,.67.94l4.17,1.46A20.37,20.37,0,0,0,28,50.48l-1.85,3.84a1,1,0,0,0,.19,1.14L31,60.12a1,1,0,0,0,1.14.19l3.58-1.72a20,20,0,0,0,5.1,2.18l1.28,3.67a1,1,0,0,0,.95.67h6.59a1,1,0,0,0,1-.67l1.29-3.68A19.67,19.67,0,0,0,57,58.59l3.58,1.72a1,1,0,0,0,1.14-.19l4.66-4.66a1,1,0,0,0,.19-1.14L64.7,50.48a20.29,20.29,0,0,0,1.81-4.66l4.17-1.46a1,1,0,0,0,.67-.94v-6.6A1,1,0,0,0,70.69,35.88ZM46.35,52.53A11.81,11.81,0,1,1,58.16,40.72h0A11.83,11.83,0,0,1,46.35,52.53Z"/>
  </g>
</svg>
