<svg id="Livello_1" data-name="Livello 1" xmlns="http://www.w3.org/2000/svg" viewBox="0 0 305 301">
  <defs>
    <style>
      .cls-1, .cls-5, .cls-8 {
        fill: none;
      }

      .cls-2 {
        fill: #e55934;
        stroke: #e55934;
      }

      .cls-2, .cls-8 {
        stroke-width: 3px;
      }

      .cls-3 {
        fill: #ffd815;
      }

      .cls-4 {
        fill: #59170d;
      }

      .cls-5, .cls-8 {
        stroke: #000;
        stroke-linecap: round;
        stroke-linejoin: round;
      }

      .cls-5 {
        stroke-width: 4px;
      }

      .cls-6 {
        fill: #ff6715;
      }

      .cls-7 {
        fill: #fff;
      }

      .cls-9 {
        fill: #f1c900;
      }
    </style>
  </defs>
  <title>Tavola disegno 4</title>
  <rect class="cls-1" x="28" y="26" width="249" height="249" rx="17"/>
  <rect class="cls-2" x="29.5" y="27.5" width="246" height="246" rx="15.5"/>
  <g>
    <circle class="cls-3" cx="153" cy="150" r="58"/>
    <path class="cls-4" d="M107.39,147h92S151.39,254,107.39,147Z"/>
    <path class="cls-5" d="M114.53,129.87s9.27-9.17,17.6-3.81"/>
    <path class="cls-5" d="M170.67,126.32s12.12-4.81,17.68,3.39"/>
    <path class="cls-6" d="M127,180s38-11,47,1C174,181,151,209,127,180Z"/>
    <polygon class="cls-7" points="111 153 194 154 196 149 109.19 149 111 153"/>
    <path class="cls-8" d="M107,147h92S151,254,107,147Z"/>
  </g>
  <polygon class="cls-9" points="109.64 87.65 94.82 79.87 80.01 87.66 82.83 71.16 70.84 59.48 87.41 57.07 94.81 42.06 102.22 57.07 118.79 59.47 106.8 71.16 109.64 87.65"/>
  <polygon class="cls-9" points="68.83 131 58.4 125.53 47.98 131.01 49.97 119.4 41.54 111.18 53.19 109.49 58.4 98.93 63.61 109.49 75.26 111.18 66.83 119.4 68.83 131"/>
  <polygon class="cls-9" points="109.64 216.41 94.82 224.2 80.01 216.41 82.83 232.91 70.84 244.59 87.41 247 94.81 262.01 102.22 247 118.79 244.6 106.8 232.91 109.64 216.41"/>
  <polygon class="cls-9" points="68.83 173.07 58.4 178.54 47.98 173.06 49.97 184.67 41.54 192.88 53.19 194.58 58.4 205.14 63.61 194.58 75.26 192.89 66.83 184.67 68.83 173.07"/>
  <polygon class="cls-9" points="193.69 89.65 208.5 81.87 223.32 89.66 220.49 73.16 232.48 61.48 215.92 59.07 208.51 44.06 201.1 59.07 184.54 61.47 196.52 73.16 193.69 89.65"/>
  <polygon class="cls-9" points="234.5 133 244.92 127.53 255.34 133.01 253.35 121.4 261.79 113.18 250.13 111.49 244.93 100.93 239.71 111.49 228.06 113.18 236.49 121.4 234.5 133"/>
  <polygon class="cls-9" points="193.69 217.41 208.5 225.2 223.32 217.41 220.49 233.91 232.48 245.59 215.92 248 208.51 263.01 201.1 248 184.54 245.6 196.52 233.91 193.69 217.41"/>
  <polygon class="cls-9" points="234.5 174.07 244.92 179.54 255.34 174.06 253.35 185.67 261.79 193.88 250.13 195.58 244.93 206.14 239.71 195.58 228.06 193.89 236.49 185.67 234.5 174.07"/>
</svg>
