<svg id="Livello_1" data-name="Livello 1" xmlns="http://www.w3.org/2000/svg" viewBox="0 0 123 203">
  <defs>
    <style>
      .cls-1 {
        fill: #5bc0eb;
      }

      .cls-2 {
        fill: #ffde00;
      }

      .cls-3, .cls-9 {
        fill: #00bbe5;
      }

      .cls-4 {
        fill: #f2bd00;
      }

      .cls-5 {
        fill: #fff;
      }

      .cls-6 {
        fill: #fa7921;
      }

      .cls-7 {
        fill: #e56e1f;
      }

      .cls-8, .cls-9 {
        isolation: isolate;
      }

      .cls-9 {
        font-size: 18px;
        font-family: GillSans-Bold, Gill Sans;
        font-weight: 700;
      }
    </style>
  </defs>
  <title>maschio</title>
  <g>
    <g id="Group_16" data-name="Group 16">
      <rect id="Rectangle_3" data-name="Rectangle 3" class="cls-1" x="26.24" y="12.83" width="70.53" height="53.5" rx="13.34"/>
      <path id="Path_8" data-name="Path 8" class="cls-1" d="M104.13,140.75H18.86a6.5,6.5,0,0,1-6.49-6.49h0V76.71a6.5,6.5,0,0,1,6.49-6.49h85.28a6.5,6.5,0,0,1,6.49,6.49h0v57.55a6.5,6.5,0,0,1-6.49,6.49Z"/>
      <path id="Path_9" data-name="Path 9" class="cls-2" d="M73.4,13.08A14.35,14.35,0,0,0,53.47,9.21a14.51,14.51,0,0,0-3.9,3.91Z"/>
      <path id="Path_10" data-name="Path 10" class="cls-3" d="M52.09,140.75c-17.75,0,72.51-65.66,45.32-69.55a35.23,35.23,0,0,1,7.3-1c2.92,0,5.62,2.15,5.84,6.33v57.87s0,5.84-13.57,6.33Z"/>
      <g id="Group_4" data-name="Group 4">
        <circle id="Ellipse_4" data-name="Ellipse 4" class="cls-2" cx="42.57" cy="33.26" r="7.78"/>
        <path id="Path_11" data-name="Path 11" class="cls-4" d="M35.7,36.91a7.79,7.79,0,0,1,12.2-9.33"/>
        <path id="Path_12" data-name="Path 12" class="cls-4" d="M36.85,38.53a7.68,7.68,0,0,1-1.15-1.62"/>
        <circle id="Ellipse_5" data-name="Ellipse 5" cx="42.57" cy="33.26" r="3.65"/>
        <circle id="Ellipse_6" data-name="Ellipse 6" class="cls-5" cx="47.07" cy="29.12" r="3.16"/>
      </g>
      <g id="Group_5" data-name="Group 5">
        <circle id="Ellipse_7" data-name="Ellipse 7" class="cls-2" cx="80.02" cy="33.26" r="7.78"/>
        <path id="Path_13" data-name="Path 13" class="cls-4" d="M73.15,36.91a7.79,7.79,0,0,1,12.2-9.33"/>
        <path id="Path_14" data-name="Path 14" class="cls-4" d="M74.3,38.53a7.68,7.68,0,0,1-1.15-1.62"/>
        <circle id="Ellipse_8" data-name="Ellipse 8" cx="80.02" cy="33.26" r="3.65"/>
        <circle id="Ellipse_9" data-name="Ellipse 9" class="cls-5" cx="84.52" cy="29.12" r="3.16"/>
      </g>
      <path id="Path_15" data-name="Path 15" class="cls-2" d="M69.84,46a1.92,1.92,0,0,0-2.71,0,2,2,0,0,0-.29.36,5.94,5.94,0,0,1-10.55-.23,1.91,1.91,0,0,0-2.59-.72,2.32,2.32,0,0,0-.3.22,7.52,7.52,0,0,0-2.68,5.61c0,4.68,4.79,8.47,10.7,8.47s10.7-3.79,10.7-8.47A7.39,7.39,0,0,0,69.84,46Z"/>
      <path id="Path_16" data-name="Path 16" class="cls-6" d="M55.87,58.47a1.33,1.33,0,0,1-.8-1.15v-.06c0-1.6,2.79-2.9,6.24-2.9s6.24,1.3,6.24,2.9a1.47,1.47,0,0,1-.28.86,1.36,1.36,0,0,1-.61.5A13.38,13.38,0,0,1,55.87,58.47Z"/>
      <path id="Path_17" data-name="Path 17" class="cls-7" d="M61.42,59.66s6.1-1.4,3-4.9c0,0,4.66,1.12,2.51,3.67A12.6,12.6,0,0,1,61.42,59.66Z"/>
    </g>
    <g id="maschio" class="cls-8">
      <text class="cls-9" transform="translate(24 188.85)">maschio</text>
    </g>
  </g>
</svg>
