<svg id="Livello_1" data-name="Livello 1" xmlns="http://www.w3.org/2000/svg" viewBox="0 0 287 164">
  <defs>
    <style>
      .cls-1, .cls-2 {
        isolation: isolate;
      }

      .cls-2 {
        font-size: 25px;
        font-family: GillSans-Bold, Gill Sans;
        font-weight: 700;
      }

      .cls-2, .cls-5 {
        fill: #e55934;
      }

      .cls-3 {
        letter-spacing: -0.03em;
      }

      .cls-4 {
        fill: none;
      }
    </style>
  </defs>
  <title>Tavola disegno 23</title>
  <g>
    <g id="VOCE" class="cls-1">
      <text class="cls-2" transform="translate(143.54 93.68)"><tspan class="cls-3">V</tspan><tspan x="18.15" y="0">OCE</tspan></text>
    </g>
    <g id="Path_44" data-name="Path 44">
      <path class="cls-4" d="M61.34,14.68H225.65a38,38,0,0,1,38,38v58.64a38,38,0,0,1-38,38H61.34a38,38,0,0,1-38-38V52.68A38,38,0,0,1,61.34,14.68Z"/>
      <path class="cls-5" d="M61.34,17.68a35,35,0,0,0-35,35v58.64a35,35,0,0,0,35,35H225.66a35,35,0,0,0,35-35V52.68a35,35,0,0,0-35-35H61.34m0-3H225.66a38,38,0,0,1,38,38v58.64a38,38,0,0,1-38,38H61.34a38,38,0,0,1-38-38V52.68A38,38,0,0,1,61.34,14.68Z"/>
    </g>
  </g>
</svg>
