<svg id="Livello_1" data-name="Livello 1" xmlns="http://www.w3.org/2000/svg" xmlns:xlink="http://www.w3.org/1999/xlink" viewBox="0 0 1366 1024">
  <defs>
    <style>
      .cls-1, .cls-3 {
        fill: none;
      }

      .cls-2 {
        fill: #9bc248;
      }

      .cls-3 {
        stroke: #e25a3c;
        stroke-linecap: round;
        stroke-linejoin: round;
        stroke-width: 1.5px;
      }

      .cls-4 {
        fill: #ffbf40;
      }

      .cls-5 {
        fill: #f77931;
      }

      .cls-6 {
        clip-path: url(#clip-path);
      }

      .cls-7 {
        opacity: 0.5;
        fill: url(#Nuovo_campione_pattern_9);
      }
    </style>
    <clipPath id="clip-path">
      <rect class="cls-1" width="1366" height="1024"/>
    </clipPath>
    <pattern id="Nuovo_campione_pattern_9" data-name="Nuovo campione pattern 9" width="480" height="357.38" patternTransform="translate(-596.47 -472.44) scale(1.06)" patternUnits="userSpaceOnUse" viewBox="0 0 480 357.38">
      <rect class="cls-1" width="480" height="357.38"/>
      <path class="cls-2" d="M421.93,369.7c0,11.34-1.84,15.16-5.54,22.68.6,5.08,1.85,11.34,1.85,15.06H395.76c3.76-7.48,3.76-13.15,3.76-18.82-11.94,6.2-22.62,7.58-35.54,7.58-3.76,7.52-3.83,11.34-1.92,17.18H339.58c1.91-5.84,1.91-11.51,0-19.09-39.3-9.43-48.59-24.59-44.83-58.62,5.6,20.84,16.81,32.18,35.47,32.18,11.27,0,28.15-15.16,46.81-20.83,37.45-9.43,56.57-5.94,47.21-36.14-14.9,3.7-26.11,1.85-26.11-7.45,0-7.45,11.21-13.05,22-13.05C453.78,292.29,446.26,352.69,421.93,369.7Zm-5.14-70a1.85,1.85,0,1,0,3.69,0,1.85,1.85,0,0,0-3.69,0ZM396,402c-1.65-.14-2-.4-3.43-1.85,1.52-3,4.29-4.81,4.22-8.37a3.6,3.6,0,0,0,.73-.27A36.1,36.1,0,0,1,396,402Zm-58-6.27c1.19,5.34,1.45,9.63.66,13.72-3.43-.07-7.65-.14-9.36-1.85,1.71-3.43,3.36-8.44,2.17-13.58C333.51,394.62,335.69,395.21,338,395.74Z"/>
      <g>
        <path class="cls-3" d="M111.27,293.88l65.92,74.28a35.25,35.25,0,0,1-54,45.35L56.27,332.88"/>
        <line class="cls-3" x1="92.9" y1="298.55" x2="84.27" y2="288.88"/>
        <line class="cls-3" x1="142.27" y1="353.88" x2="98.25" y2="304.55"/>
        <line class="cls-3" x1="57.38" y1="305.31" x2="50.27" y2="296.88"/>
        <line class="cls-3" x1="109.27" y1="366.88" x2="62.49" y2="311.38"/>
        <circle class="cls-4" cx="167.27" cy="331.88" r="6"/>
        <circle class="cls-4" cx="149.77" cy="308.38" r="3"/>
        <line class="cls-3" x1="95.22" y1="326.44" x2="89.27" y2="319.88"/>
        <line class="cls-3" x1="118.27" y1="351.88" x2="101.11" y2="332.94"/>
      </g>
      <g>
        <circle class="cls-5" cx="390.27" cy="212.19" r="29.5"/>
        <path class="cls-3" d="M351.27,115.19l65.92,74.28a35.25,35.25,0,0,1-54,45.35l-66.94-80.63"/>
        <line class="cls-3" x1="332.9" y1="119.86" x2="324.27" y2="110.19"/>
        <line class="cls-3" x1="382.27" y1="175.19" x2="338.25" y2="125.86"/>
        <line class="cls-3" x1="297.38" y1="126.62" x2="290.27" y2="118.19"/>
        <line class="cls-3" x1="349.27" y1="188.19" x2="302.49" y2="132.69"/>
        <circle class="cls-4" cx="407.27" cy="153.19" r="6"/>
        <circle class="cls-4" cx="389.77" cy="129.69" r="3"/>
        <circle class="cls-4" cx="315.77" cy="211.69" r="6"/>
        <circle class="cls-4" cx="344.77" cy="234.69" r="3"/>
        <line class="cls-3" x1="335.22" y1="147.75" x2="329.27" y2="141.19"/>
        <line class="cls-3" x1="358.27" y1="173.19" x2="341.11" y2="154.25"/>
        <path class="cls-2" d="M181.93,191c0,11.34-1.84,15.16-5.54,22.68.6,5.08,1.85,11.34,1.85,15.06H155.76c3.76-7.48,3.76-13.15,3.76-18.82-11.94,6.2-22.62,7.58-35.54,7.58-3.76,7.52-3.83,11.34-1.92,17.18H99.58c1.91-5.84,1.91-11.51,0-19.09C60.28,206.17,51,191,54.75,157c5.6,20.83,16.81,32.17,35.47,32.17,11.27,0,28.15-15.16,46.81-20.83,37.45-9.43,56.57-5.94,47.21-36.14-14.9,3.7-26.11,1.85-26.11-7.45,0-7.45,11.21-13,22-13C213.78,113.6,206.26,174,181.93,191Zm-5.14-70a1.85,1.85,0,1,0,1.85-1.85A1.86,1.86,0,0,0,176.79,121ZM156,223.32c-1.65-.14-2-.4-3.43-1.85,1.52-3,4.29-4.81,4.22-8.37a3.6,3.6,0,0,0,.73-.27A36.05,36.05,0,0,1,156,223.32Zm-58-6.27c1.19,5.34,1.45,9.63.66,13.72-3.43-.07-7.65-.13-9.36-1.85,1.71-3.43,3.36-8.44,2.17-13.58C93.51,215.93,95.69,216.53,98,217.05Z"/>
      </g>
      <path class="cls-2" d="M421.93,12.32c0,11.34-1.84,15.16-5.54,22.68.6,5.08,1.85,11.34,1.85,15.06H395.76c3.76-7.48,3.76-13.15,3.76-18.82-11.94,6.2-22.62,7.59-35.54,7.59-3.76,7.51-3.83,11.34-1.92,17.17H339.58c1.91-5.83,1.91-11.5,0-19.09C300.28,27.48,291,12.32,294.75-21.7c5.6,20.83,16.81,32.17,35.47,32.17,11.27,0,28.15-15.16,46.81-20.83,37.45-9.43,56.57-5.94,47.21-36.13-14.9,3.69-26.11,1.84-26.11-7.45,0-7.46,11.21-13.06,22-13.06C453.78-65.09,446.26-4.69,421.93,12.32Zm-5.14-70a1.86,1.86,0,0,0,1.85,1.91,1.86,1.86,0,0,0,1.84-1.91,1.84,1.84,0,0,0-1.84-1.85A1.85,1.85,0,0,0,416.79-57.7ZM396,44.63c-1.65-.13-2-.4-3.43-1.85,1.52-3,4.29-4.81,4.22-8.37a3.09,3.09,0,0,0,.73-.27A36.05,36.05,0,0,1,396,44.63Zm-58-6.27c1.19,5.34,1.45,9.63.66,13.72C335.23,52,331,52,329.3,50.23c1.71-3.43,3.36-8.44,2.17-13.58C333.51,37.24,335.69,37.84,338,38.36Z"/>
      <g>
        <circle class="cls-5" cx="150.27" cy="33.5" r="29.5"/>
        <path class="cls-3" d="M111.27-63.5l65.92,74.29a35.25,35.25,0,0,1-54,45.34L56.27-24.5"/>
        <line class="cls-3" x1="109.27" y1="9.5" x2="62.49" y2="-46"/>
        <circle class="cls-4" cx="75.77" cy="33" r="6"/>
        <circle class="cls-4" cx="104.77" cy="56" r="3"/>
      </g>
    </pattern>
  </defs>
  <title>Tavola disegno 2</title>
  <g class="cls-6">
    <rect class="cls-7" x="-81.31" y="-30" width="1444.71" height="1083"/>
  </g>
</svg>
