<svg id="Livello_1" data-name="Livello 1" xmlns="http://www.w3.org/2000/svg" viewBox="0 0 305 301">
  <defs>
    <style>
      .cls-1 {
        fill: #dd3217;
      }

      .cls-2 {
        fill: #870606;
      }

      .cls-3 {
        opacity: 0.31;
      }

      .cls-4 {
        opacity: 0.13;
      }
    </style>
  </defs>
  <title>img</title>
  <rect class="cls-1" x="29.5" y="28.5" width="246" height="246" rx="15.5"/>
  <path class="cls-2" d="M105.61,65a57.81,57.81,0,0,0-57.7,57.7c0,26.63,18.17,51.81,39.17,73.63s45.48,40.35,60.43,51.86a6.92,6.92,0,0,0,8.51,0c15-11.51,39.45-30,60.44-51.86s39.17-47,39.17-73.63A57.81,57.81,0,0,0,197.93,65c-19.06,0-35.64,9.56-46.16,23.87C141.25,74.57,124.67,65,105.61,65Zm0,13.85a43.87,43.87,0,0,1,39.89,25.53,6.92,6.92,0,0,0,12.54,0,43.88,43.88,0,0,1,83.74,18.32c0,20-15.3,43.29-35.27,64-18.44,19.16-39.66,35.57-54.74,47.17-15.08-11.6-36.3-28-54.74-47.17-20-20.75-35.27-44-35.27-64A43.75,43.75,0,0,1,105.61,78.86Z"/>
  <g class="cls-3">
    <path class="cls-2" d="M97.51,46.73a57.8,57.8,0,0,0-57.7,57.69c0,26.64,18.16,51.82,39.16,73.64s45.48,40.35,60.44,51.85a6.92,6.92,0,0,0,8.51,0c15-11.5,39.44-30,60.44-51.85s39.16-47,39.16-73.64a57.8,57.8,0,0,0-57.7-57.69c-19.06,0-35.64,9.55-46.16,23.87C133.15,56.28,116.57,46.73,97.51,46.73Zm0,13.84A43.86,43.86,0,0,1,137.39,86.1a6.92,6.92,0,0,0,12.55,0,43.87,43.87,0,0,1,83.73,18.32c0,20-15.3,43.29-35.27,64.05C180,187.63,158.75,204,143.66,215.63c-15.08-11.59-36.3-28-54.74-47.16-20-20.76-35.26-44-35.26-64A43.75,43.75,0,0,1,97.51,60.57Z"/>
  </g>
  <g class="cls-4">
    <path class="cls-2" d="M119.46,83.11a57.8,57.8,0,0,0-57.7,57.69c0,26.64,18.17,51.82,39.16,73.64s45.49,40.35,60.44,51.86a7,7,0,0,0,8.51,0c15-11.51,39.44-30,60.44-51.86s39.16-47,39.16-73.64a57.79,57.79,0,0,0-57.69-57.69c-19.06,0-35.64,9.56-46.16,23.87C155.1,92.67,138.52,83.11,119.46,83.11Zm0,13.84a43.86,43.86,0,0,1,39.88,25.54,6.93,6.93,0,0,0,12.55,0,43.88,43.88,0,0,1,83.74,18.31c0,20-15.3,43.3-35.27,64C201.92,224,180.7,240.42,165.62,252c-15.09-11.6-36.3-28-54.74-47.17-20-20.75-35.27-44-35.27-64A43.75,43.75,0,0,1,119.46,97Z"/>
  </g>
</svg>
