<svg id="Livello_1" data-name="Livello 1" xmlns="http://www.w3.org/2000/svg" xmlns:xlink="http://www.w3.org/1999/xlink" viewBox="0 0 1366 1024">
  <defs>
    <style>
      .cls-1 {
        fill: none;
      }

      .cls-2 {
        fill: #d83db0;
      }

      .cls-3 {
        fill: #fddb32;
      }

      .cls-4 {
        clip-path: url(#clip-path);
      }

      .cls-5 {
        opacity: 0.5;
        fill: url(#Nuovo_campione_pattern_10);
      }
    </style>
    <clipPath id="clip-path">
      <rect class="cls-1" width="1366" height="1024"/>
    </clipPath>
    <pattern id="Nuovo_campione_pattern_10" data-name="Nuovo campione pattern 10" width="480" height="508.02" patternUnits="userSpaceOnUse" viewBox="0 0 480 508.01">
      <rect class="cls-1" width="480" height="508.02"/>
      <g>
        <path class="cls-2" d="M372.17,495l-35.54,31.1c-.32.28-.64.55-1,.8-12.21,9.29-29.47-2-26.59-17.09l2.31-12.17a16.71,16.71,0,0,0-2.53-12.45l-6.43-9.62c-8.56-12.8,3.07-30,17.94-26l1.2.36,44.71,15.24A17.56,17.56,0,0,1,372.17,495Z"/>
        <path class="cls-2" d="M410.34,488.13l44.18,16.7c.4.15.79.28,1.19.4,14.68,4.44,26.9-12.19,18.93-25.31l-6.42-10.58a16.74,16.74,0,0,1-2-12.55l2.66-11.27c3.54-15-13.36-27-25.91-18.09-.34.24-.67.49-1,.76L405.43,458.1A17.57,17.57,0,0,0,410.34,488.13Z"/>
        <ellipse class="cls-3" cx="389.64" cy="477.18" rx="40.5" ry="46.5" transform="translate(-149.2 775.8) rotate(-79.76)"/>
      </g>
      <g>
        <path class="cls-3" d="M105.68,602.32l-.08,0a13.88,13.88,0,0,1-6.92-18.37l47.75-105.56c6.41-14.42,8.07-27,4.11-31.28-6.77-7.34-11.44-6.91-13-6.77-9.39.85-20.26,13.51-24,19.5A13.88,13.88,0,1,1,90,445.09c1.91-3.06,19.4-30,44.95-32.42,9.09-.85,22.72,1.16,36,15.59,8.67,9.4,15.85,27.69.83,61.43l0,.07L124,595.36A13.87,13.87,0,0,1,105.68,602.32Z"/>
        <g>
          <path class="cls-2" d="M171.74,489.76l0-.07.09-.23c-8.06,1-19.29,1.44-29.89-1.26l-6.09,13.46c8.88,1.77,20.56,3.23,29.86,1.35Z"/>
          <path class="cls-2" d="M149.26,471.26c8.68,1.17,20,1.9,29.09-.28a67.66,67.66,0,0,0,2.13-16.3c-6.94,3.05-17.56,6.85-28.68,7.6A69,69,0,0,1,149.26,471.26Z"/>
          <path class="cls-2" d="M92.62,441.2c-1.39,1.92-2.29,3.32-2.65,3.89a13.88,13.88,0,1,0,23.54,14.72l.59-.89C108.61,453.1,100.75,445.72,92.62,441.2Z"/>
          <path class="cls-2" d="M126.4,445.61c.87-.69,1.77-1.33,2.67-1.92,3.5-6.87,9.48-20.08,10.07-31.18a40.61,40.61,0,0,0-4.22.16C122.5,413.84,112,420.81,104.24,428,110.58,431.69,119.4,437.64,126.4,445.61Z"/>
          <path class="cls-2" d="M147,443.77a32.12,32.12,0,0,1,2.9,2.67c7.88-1.43,18.73-4.06,27.27-8.59a34.51,34.51,0,0,0-6.24-9.59,50.67,50.67,0,0,0-16.67-12.35C153.75,421.56,152.09,433.17,147,443.77Z"/>
        </g>
      </g>
      <g>
        <path class="cls-2" d="M132.17,241,96.63,272.12c-.32.28-.64.54-1,.79-12.21,9.3-29.47-2-26.59-17.09l2.31-12.16a16.72,16.72,0,0,0-2.53-12.46l-6.43-9.62c-8.56-12.79,3.07-30,17.94-26l1.2.36,44.71,15.24A17.56,17.56,0,0,1,132.17,241Z"/>
        <path class="cls-2" d="M170.34,234.12l44.18,16.7c.4.15.79.29,1.19.41,14.68,4.44,26.9-12.2,18.93-25.31l-6.42-10.59a16.74,16.74,0,0,1-2-12.55l2.66-11.27c3.54-15-13.36-27-25.91-18.09-.34.24-.67.5-1,.76l-36.55,29.91A17.57,17.57,0,0,0,170.34,234.12Z"/>
        <ellipse class="cls-3" cx="149.64" cy="223.17" rx="40.5" ry="46.5" transform="translate(-96.58 330.76) rotate(-79.76)"/>
        <g>
          <path class="cls-3" d="M345.68,348.32l-.08,0a13.88,13.88,0,0,1-6.92-18.37l47.75-105.56c6.41-14.42,8.07-27,4.11-31.27-6.77-7.34-11.44-6.92-13-6.78-9.39.85-20.26,13.51-24.05,19.51A13.88,13.88,0,0,1,330,191.09c1.91-3.07,19.4-30,44.95-32.43,9.09-.85,22.72,1.16,36,15.59,8.67,9.4,15.85,27.69.83,61.43l0,.07L364,341.36A13.88,13.88,0,0,1,345.68,348.32Z"/>
          <g>
            <path class="cls-2" d="M381.49,302.63c-7.92-.08-18.55-1.06-28.31-4.79l-7.56,16.71c7.6,2.23,18.61,4.81,28.38,4.63Z"/>
            <path class="cls-2" d="M411.74,235.75l0-.07.09-.22c-8.06,1-19.29,1.43-29.89-1.27l-6.09,13.46c8.88,1.77,20.56,3.23,29.86,1.36Z"/>
            <path class="cls-2" d="M389.26,217.25c8.68,1.18,20,1.9,29.09-.28a67.66,67.66,0,0,0,2.13-16.3c-6.94,3.05-17.56,6.85-28.68,7.6A69,69,0,0,1,389.26,217.25Z"/>
            <path class="cls-2" d="M360.64,281.37c8.15,2.26,19.24,4.57,28.71,3.88l8.17-18.05c-7.88.48-18.88.29-29.18-2.85Z"/>
            <path class="cls-2" d="M332.62,187.19c-1.39,1.92-2.29,3.33-2.65,3.9a13.88,13.88,0,0,0,23.54,14.72c.18-.29.38-.59.59-.9C348.61,199.1,340.75,191.71,332.62,187.19Z"/>
            <path class="cls-2" d="M338.32,330.81a13.87,13.87,0,0,0,7.28,17.47l.08,0a13.88,13.88,0,0,0,18.29-7l2.25-5C358,336.12,347.64,334.83,338.32,330.81Z"/>
            <path class="cls-2" d="M366.4,191.6c.87-.69,1.77-1.33,2.67-1.92,3.5-6.87,9.48-20.07,10.07-31.18a40.61,40.61,0,0,0-4.22.16C362.5,159.83,352,166.81,344.24,174,350.58,177.68,359.4,183.63,366.4,191.6Z"/>
            <path class="cls-2" d="M387,189.76a32.12,32.12,0,0,1,2.9,2.67c7.88-1.43,18.73-4.06,27.27-8.59a34.51,34.51,0,0,0-6.24-9.59,50.81,50.81,0,0,0-16.67-12.35C393.75,167.55,392.09,179.17,387,189.76Z"/>
          </g>
        </g>
      </g>
      <g>
        <path class="cls-2" d="M372.17-13l-35.54,31.1c-.32.28-.64.54-1,.79-12.21,9.3-29.47-2-26.59-17.09l2.31-12.16a16.7,16.7,0,0,0-2.53-12.45l-6.43-9.63c-8.56-12.79,3.07-30,17.94-26,.4.11.8.23,1.2.37l44.71,15.23A17.57,17.57,0,0,1,372.17-13Z"/>
        <ellipse class="cls-3" cx="389.64" cy="-30.84" rx="40.5" ry="46.5" transform="translate(350.73 358.08) rotate(-79.76)"/>
      </g>
      <g>
        <path class="cls-3" d="M105.68,94.31l-.08,0a13.87,13.87,0,0,1-6.92-18.36L146.43-29.66c6.41-14.42,8.07-27,4.11-31.27-6.77-7.34-11.44-6.92-13-6.78-9.39.86-20.26,13.51-24,19.51A13.87,13.87,0,0,1,94.4-43.78,13.91,13.91,0,0,1,90-62.92c1.91-3.07,19.4-30,44.95-32.42,9.09-.86,22.72,1.15,36,15.59,8.67,9.4,15.85,27.68.83,61.42l0,.08L124,87.35A13.88,13.88,0,0,1,105.68,94.31Z"/>
        <g>
          <path class="cls-2" d="M141.49,48.63c-7.92-.09-18.55-1.06-28.31-4.79l-7.56,16.71c7.6,2.22,18.61,4.8,28.38,4.62Z"/>
          <path class="cls-2" d="M120.64,27.37c8.15,2.25,19.24,4.56,28.71,3.87l8.17-18c-7.88.48-18.88.29-29.18-2.85Z"/>
          <path class="cls-2" d="M98.32,76.81a13.86,13.86,0,0,0,7.28,17.46l.08,0a13.88,13.88,0,0,0,18.29-7l2.25-5C118,82.11,107.64,80.82,98.32,76.81Z"/>
        </g>
      </g>
    </pattern>
  </defs>
  <title>Tavola disegno 4</title>
  <g class="cls-4">
    <rect class="cls-5" x="-3" width="1369" height="1024"/>
  </g>
</svg>
