<svg id="Livello_1" data-name="Livello 1" xmlns="http://www.w3.org/2000/svg" xmlns:xlink="http://www.w3.org/1999/xlink" viewBox="0 0 1366 1024">
  <defs>
    <style>
      .cls-1, .cls-5 {
        fill: none;
      }

      .cls-2 {
        fill: #d83db0;
      }

      .cls-3 {
        fill: #fddb32;
      }

      .cls-4 {
        fill: #9bc248;
      }

      .cls-5 {
        stroke: #e25a3c;
        stroke-linecap: round;
        stroke-linejoin: round;
        stroke-width: 1.5px;
      }

      .cls-6 {
        fill: #ffbf40;
      }

      .cls-7 {
        fill: #f77931;
      }

      .cls-8 {
        clip-path: url(#clip-path);
      }

      .cls-9 {
        clip-path: url(#clip-path-2);
      }

      .cls-10, .cls-13 {
        opacity: 0.5;
      }

      .cls-10 {
        fill: url(#Nuovo_campione_pattern_9);
      }

      .cls-11 {
        clip-path: url(#clip-path-3);
      }

      .cls-12 {
        clip-path: url(#clip-path-4);
      }

      .cls-13 {
        fill: url(#Nuovo_campione_pattern_10);
      }
    </style>
    <clipPath id="clip-path">
      <rect class="cls-1" x="-1465" width="1333" height="1020.6"/>
    </clipPath>
    <clipPath id="clip-path-2">
      <rect class="cls-1" x="-1719.16" y="-71.48" width="1808.22" height="1355.5"/>
    </clipPath>
    <pattern id="Nuovo_campione_pattern_9" data-name="Nuovo campione pattern 9" width="480" height="357.38" patternTransform="translate(-1224.22 -1181.5) scale(1.4)" patternUnits="userSpaceOnUse" viewBox="0 0 480 357.38">
      <rect class="cls-1" width="480" height="357.38"/>
      <path class="cls-4" d="M421.93,369.7c0,11.34-1.84,15.16-5.54,22.68.6,5.08,1.85,11.34,1.85,15.06H395.76c3.76-7.48,3.76-13.15,3.76-18.82-11.94,6.2-22.62,7.58-35.54,7.58-3.76,7.52-3.83,11.34-1.92,17.18H339.58c1.91-5.84,1.91-11.51,0-19.09-39.3-9.43-48.59-24.59-44.83-58.62,5.6,20.84,16.81,32.18,35.47,32.18,11.27,0,28.15-15.16,46.81-20.83,37.45-9.43,56.57-5.94,47.21-36.14-14.9,3.7-26.11,1.85-26.11-7.45,0-7.45,11.21-13.05,22-13.05C453.78,292.29,446.26,352.69,421.93,369.7Zm-5.14-70a1.85,1.85,0,1,0,3.69,0,1.85,1.85,0,0,0-3.69,0ZM396,402c-1.65-.14-2-.4-3.43-1.85,1.52-3,4.29-4.81,4.22-8.37a3.6,3.6,0,0,0,.73-.27A36.1,36.1,0,0,1,396,402Zm-58-6.27c1.19,5.34,1.45,9.63.66,13.72-3.43-.07-7.65-.14-9.36-1.85,1.71-3.43,3.36-8.44,2.17-13.58C333.51,394.62,335.69,395.21,338,395.74Z"/>
      <g>
        <path class="cls-5" d="M111.27,293.88l65.92,74.28a35.25,35.25,0,0,1-54,45.35L56.27,332.88"/>
        <line class="cls-5" x1="92.9" y1="298.55" x2="84.27" y2="288.88"/>
        <line class="cls-5" x1="142.27" y1="353.88" x2="98.25" y2="304.55"/>
        <line class="cls-5" x1="57.38" y1="305.31" x2="50.27" y2="296.88"/>
        <line class="cls-5" x1="109.27" y1="366.88" x2="62.49" y2="311.38"/>
        <circle class="cls-6" cx="167.27" cy="331.88" r="6"/>
        <circle class="cls-6" cx="149.77" cy="308.38" r="3"/>
        <line class="cls-5" x1="95.22" y1="326.44" x2="89.27" y2="319.88"/>
        <line class="cls-5" x1="118.27" y1="351.88" x2="101.11" y2="332.94"/>
      </g>
      <g>
        <circle class="cls-7" cx="390.27" cy="212.19" r="29.5"/>
        <path class="cls-5" d="M351.27,115.19l65.92,74.28a35.25,35.25,0,0,1-54,45.35l-66.94-80.63"/>
        <line class="cls-5" x1="332.9" y1="119.86" x2="324.27" y2="110.19"/>
        <line class="cls-5" x1="382.27" y1="175.19" x2="338.25" y2="125.86"/>
        <line class="cls-5" x1="297.38" y1="126.62" x2="290.27" y2="118.19"/>
        <line class="cls-5" x1="349.27" y1="188.19" x2="302.49" y2="132.69"/>
        <circle class="cls-6" cx="407.27" cy="153.19" r="6"/>
        <circle class="cls-6" cx="389.77" cy="129.69" r="3"/>
        <circle class="cls-6" cx="315.77" cy="211.69" r="6"/>
        <circle class="cls-6" cx="344.77" cy="234.69" r="3"/>
        <line class="cls-5" x1="335.22" y1="147.75" x2="329.27" y2="141.19"/>
        <line class="cls-5" x1="358.27" y1="173.19" x2="341.11" y2="154.25"/>
        <path class="cls-4" d="M181.93,191c0,11.34-1.84,15.16-5.54,22.68.6,5.08,1.85,11.34,1.85,15.06H155.76c3.76-7.48,3.76-13.15,3.76-18.82-11.94,6.2-22.62,7.58-35.54,7.58-3.76,7.52-3.83,11.34-1.92,17.18H99.58c1.91-5.84,1.91-11.51,0-19.09C60.28,206.17,51,191,54.75,157c5.6,20.83,16.81,32.17,35.47,32.17,11.27,0,28.15-15.16,46.81-20.83,37.45-9.43,56.57-5.94,47.21-36.14-14.9,3.7-26.11,1.85-26.11-7.45,0-7.45,11.21-13,22-13C213.78,113.6,206.26,174,181.93,191Zm-5.14-70a1.85,1.85,0,1,0,1.85-1.85A1.86,1.86,0,0,0,176.79,121ZM156,223.32c-1.65-.14-2-.4-3.43-1.85,1.52-3,4.29-4.81,4.22-8.37a3.6,3.6,0,0,0,.73-.27A36.05,36.05,0,0,1,156,223.32Zm-58-6.27c1.19,5.34,1.45,9.63.66,13.72-3.43-.07-7.65-.13-9.36-1.85,1.71-3.43,3.36-8.44,2.17-13.58C93.51,215.93,95.69,216.53,98,217.05Z"/>
      </g>
      <path class="cls-4" d="M421.93,12.32c0,11.34-1.84,15.16-5.54,22.68.6,5.08,1.85,11.34,1.85,15.06H395.76c3.76-7.48,3.76-13.15,3.76-18.82-11.94,6.2-22.62,7.59-35.54,7.59-3.76,7.51-3.83,11.34-1.92,17.17H339.58c1.91-5.83,1.91-11.5,0-19.09C300.28,27.48,291,12.32,294.75-21.7c5.6,20.83,16.81,32.17,35.47,32.17,11.27,0,28.15-15.16,46.81-20.83,37.45-9.43,56.57-5.94,47.21-36.13-14.9,3.69-26.11,1.84-26.11-7.45,0-7.46,11.21-13.06,22-13.06C453.78-65.09,446.26-4.69,421.93,12.32Zm-5.14-70a1.86,1.86,0,0,0,1.85,1.91,1.86,1.86,0,0,0,1.84-1.91,1.84,1.84,0,0,0-1.84-1.85A1.85,1.85,0,0,0,416.79-57.7ZM396,44.63c-1.65-.13-2-.4-3.43-1.85,1.52-3,4.29-4.81,4.22-8.37a3.09,3.09,0,0,0,.73-.27A36.05,36.05,0,0,1,396,44.63Zm-58-6.27c1.19,5.34,1.45,9.63.66,13.72C335.23,52,331,52,329.3,50.23c1.71-3.43,3.36-8.44,2.17-13.58C333.51,37.24,335.69,37.84,338,38.36Z"/>
      <g>
        <circle class="cls-7" cx="150.27" cy="33.5" r="29.5"/>
        <path class="cls-5" d="M111.27-63.5l65.92,74.29a35.25,35.25,0,0,1-54,45.34L56.27-24.5"/>
        <line class="cls-5" x1="109.27" y1="9.5" x2="62.49" y2="-46"/>
        <circle class="cls-6" cx="75.77" cy="33" r="6"/>
        <circle class="cls-6" cx="104.77" cy="56" r="3"/>
      </g>
    </pattern>
    <clipPath id="clip-path-3">
      <rect class="cls-1" x="-7" y="-14" width="1359" height="1069.17"/>
    </clipPath>
    <clipPath id="clip-path-4">
      <rect class="cls-1" x="-292.67" y="-190.12" width="1894.28" height="1420.02"/>
    </clipPath>
    <pattern id="Nuovo_campione_pattern_10" data-name="Nuovo campione pattern 10" width="480" height="508.02" patternTransform="translate(-333.29 -1046.4) scale(1.39)" patternUnits="userSpaceOnUse" viewBox="0 0 480 508.01">
      <rect class="cls-1" width="480" height="508.02"/>
      <g>
        <path class="cls-2" d="M372.17,495l-35.54,31.1c-.32.28-.64.55-1,.8-12.21,9.29-29.47-2-26.59-17.09l2.31-12.17a16.71,16.71,0,0,0-2.53-12.45l-6.43-9.62c-8.56-12.8,3.07-30,17.94-26l1.2.36,44.71,15.24A17.56,17.56,0,0,1,372.17,495Z"/>
        <path class="cls-2" d="M410.34,488.13l44.18,16.7c.4.15.79.28,1.19.4,14.68,4.44,26.9-12.19,18.93-25.31l-6.42-10.58a16.74,16.74,0,0,1-2-12.55l2.66-11.27c3.54-15-13.36-27-25.91-18.09-.34.24-.67.49-1,.76L405.43,458.1A17.57,17.57,0,0,0,410.34,488.13Z"/>
        <ellipse class="cls-3" cx="389.64" cy="477.18" rx="40.5" ry="46.5" transform="translate(-149.2 775.8) rotate(-79.76)"/>
      </g>
      <g>
        <path class="cls-3" d="M105.68,602.32l-.08,0a13.88,13.88,0,0,1-6.92-18.37l47.75-105.56c6.41-14.42,8.07-27,4.11-31.28-6.77-7.34-11.44-6.91-13-6.77-9.39.85-20.26,13.51-24,19.5A13.88,13.88,0,1,1,90,445.09c1.91-3.06,19.4-30,44.95-32.42,9.09-.85,22.72,1.16,36,15.59,8.67,9.4,15.85,27.69.83,61.43l0,.07L124,595.36A13.87,13.87,0,0,1,105.68,602.32Z"/>
        <g>
          <path class="cls-2" d="M171.74,489.76l0-.07.09-.23c-8.06,1-19.29,1.44-29.89-1.26l-6.09,13.46c8.88,1.77,20.56,3.23,29.86,1.35Z"/>
          <path class="cls-2" d="M149.26,471.26c8.68,1.17,20,1.9,29.09-.28a67.66,67.66,0,0,0,2.13-16.3c-6.94,3.05-17.56,6.85-28.68,7.6A69,69,0,0,1,149.26,471.26Z"/>
          <path class="cls-2" d="M92.62,441.2c-1.39,1.92-2.29,3.32-2.65,3.89a13.88,13.88,0,1,0,23.54,14.72l.59-.89C108.61,453.1,100.75,445.72,92.62,441.2Z"/>
          <path class="cls-2" d="M126.4,445.61c.87-.69,1.77-1.33,2.67-1.92,3.5-6.87,9.48-20.08,10.07-31.18a40.61,40.61,0,0,0-4.22.16C122.5,413.84,112,420.81,104.24,428,110.58,431.69,119.4,437.64,126.4,445.61Z"/>
          <path class="cls-2" d="M147,443.77a32.12,32.12,0,0,1,2.9,2.67c7.88-1.43,18.73-4.06,27.27-8.59a34.51,34.51,0,0,0-6.24-9.59,50.67,50.67,0,0,0-16.67-12.35C153.75,421.56,152.09,433.17,147,443.77Z"/>
        </g>
      </g>
      <g>
        <path class="cls-2" d="M132.17,241,96.63,272.12c-.32.28-.64.54-1,.79-12.21,9.3-29.47-2-26.59-17.09l2.31-12.16a16.72,16.72,0,0,0-2.53-12.46l-6.43-9.62c-8.56-12.79,3.07-30,17.94-26l1.2.36,44.71,15.24A17.56,17.56,0,0,1,132.17,241Z"/>
        <path class="cls-2" d="M170.34,234.12l44.18,16.7c.4.15.79.29,1.19.41,14.68,4.44,26.9-12.2,18.93-25.31l-6.42-10.59a16.74,16.74,0,0,1-2-12.55l2.66-11.27c3.54-15-13.36-27-25.91-18.09-.34.24-.67.5-1,.76l-36.55,29.91A17.57,17.57,0,0,0,170.34,234.12Z"/>
        <ellipse class="cls-3" cx="149.64" cy="223.17" rx="40.5" ry="46.5" transform="translate(-96.58 330.76) rotate(-79.76)"/>
        <g>
          <path class="cls-3" d="M345.68,348.32l-.08,0a13.88,13.88,0,0,1-6.92-18.37l47.75-105.56c6.41-14.42,8.07-27,4.11-31.27-6.77-7.34-11.44-6.92-13-6.78-9.39.85-20.26,13.51-24.05,19.51A13.88,13.88,0,0,1,330,191.09c1.91-3.07,19.4-30,44.95-32.43,9.09-.85,22.72,1.16,36,15.59,8.67,9.4,15.85,27.69.83,61.43l0,.07L364,341.36A13.88,13.88,0,0,1,345.68,348.32Z"/>
          <g>
            <path class="cls-2" d="M381.49,302.63c-7.92-.08-18.55-1.06-28.31-4.79l-7.56,16.71c7.6,2.23,18.61,4.81,28.38,4.63Z"/>
            <path class="cls-2" d="M411.74,235.75l0-.07.09-.22c-8.06,1-19.29,1.43-29.89-1.27l-6.09,13.46c8.88,1.77,20.56,3.23,29.86,1.36Z"/>
            <path class="cls-2" d="M389.26,217.25c8.68,1.18,20,1.9,29.09-.28a67.66,67.66,0,0,0,2.13-16.3c-6.94,3.05-17.56,6.85-28.68,7.6A69,69,0,0,1,389.26,217.25Z"/>
            <path class="cls-2" d="M360.64,281.37c8.15,2.26,19.24,4.57,28.71,3.88l8.17-18.05c-7.88.48-18.88.29-29.18-2.85Z"/>
            <path class="cls-2" d="M332.62,187.19c-1.39,1.92-2.29,3.33-2.65,3.9a13.88,13.88,0,0,0,23.54,14.72c.18-.29.38-.59.59-.9C348.61,199.1,340.75,191.71,332.62,187.19Z"/>
            <path class="cls-2" d="M338.32,330.81a13.87,13.87,0,0,0,7.28,17.47l.08,0a13.88,13.88,0,0,0,18.29-7l2.25-5C358,336.12,347.64,334.83,338.32,330.81Z"/>
            <path class="cls-2" d="M366.4,191.6c.87-.69,1.77-1.33,2.67-1.92,3.5-6.87,9.48-20.07,10.07-31.18a40.61,40.61,0,0,0-4.22.16C362.5,159.83,352,166.81,344.24,174,350.58,177.68,359.4,183.63,366.4,191.6Z"/>
            <path class="cls-2" d="M387,189.76a32.12,32.12,0,0,1,2.9,2.67c7.88-1.43,18.73-4.06,27.27-8.59a34.51,34.51,0,0,0-6.24-9.59,50.81,50.81,0,0,0-16.67-12.35C393.75,167.55,392.09,179.17,387,189.76Z"/>
          </g>
        </g>
      </g>
      <g>
        <path class="cls-2" d="M372.17-13l-35.54,31.1c-.32.28-.64.54-1,.79-12.21,9.3-29.47-2-26.59-17.09l2.31-12.16a16.7,16.7,0,0,0-2.53-12.45l-6.43-9.63c-8.56-12.79,3.07-30,17.94-26,.4.11.8.23,1.2.37l44.71,15.23A17.57,17.57,0,0,1,372.17-13Z"/>
        <ellipse class="cls-3" cx="389.64" cy="-30.84" rx="40.5" ry="46.5" transform="translate(350.73 358.08) rotate(-79.76)"/>
      </g>
      <g>
        <path class="cls-3" d="M105.68,94.31l-.08,0a13.87,13.87,0,0,1-6.92-18.36L146.43-29.66c6.41-14.42,8.07-27,4.11-31.27-6.77-7.34-11.44-6.92-13-6.78-9.39.86-20.26,13.51-24,19.51A13.87,13.87,0,0,1,94.4-43.78,13.91,13.91,0,0,1,90-62.92c1.91-3.07,19.4-30,44.95-32.42,9.09-.86,22.72,1.15,36,15.59,8.67,9.4,15.85,27.68.83,61.42l0,.08L124,87.35A13.88,13.88,0,0,1,105.68,94.31Z"/>
        <g>
          <path class="cls-2" d="M141.49,48.63c-7.92-.09-18.55-1.06-28.31-4.79l-7.56,16.71c7.6,2.22,18.61,4.8,28.38,4.62Z"/>
          <path class="cls-2" d="M120.64,27.37c8.15,2.25,19.24,4.56,28.71,3.87l8.17-18c-7.88.48-18.88.29-29.18-2.85Z"/>
          <path class="cls-2" d="M98.32,76.81a13.86,13.86,0,0,0,7.28,17.46l.08,0a13.88,13.88,0,0,0,18.29-7l2.25-5C118,82.11,107.64,80.82,98.32,76.81Z"/>
        </g>
      </g>
    </pattern>
  </defs>
  <title>pattern</title>
  <g class="cls-8">
    <g class="cls-9">
      <rect class="cls-10" x="-1826.79" y="-111.19" width="1912.41" height="1433.6"/>
    </g>
  </g>
  <g class="cls-11">
    <g class="cls-12">
      <rect class="cls-13" x="-296.83" y="-190.12" width="1898.44" height="1420.02"/>
    </g>
  </g>
</svg>
