<svg id="Livello_1" data-name="Livello 1" xmlns="http://www.w3.org/2000/svg" viewBox="0 0 305 301">
  <defs>
    <style>
      .cls-1 {
        fill: #5bbee9;
      }

      .cls-2 {
        fill: #d936b1;
      }

      .cls-3 {
        fill: #fddc03;
      }
    </style>
  </defs>
  <title>img</title>
  <rect class="cls-1" x="29.5" y="27.5" width="246" height="246" rx="15.5"/>
  <g>
    <path class="cls-2" d="M136.22,168.77l42.1-21.42c.38-.19.74-.4,1.1-.61,13.17-7.87,9.09-28.1-6-31l-12.16-2.37a16.75,16.75,0,0,1-10.61-7l-6.54-9.55c-8.69-12.7-29-8.3-30.82,7,0,.41-.09.83-.11,1.25l-2.49,47.17A17.56,17.56,0,0,0,136.22,168.77Z"/>
    <path class="cls-2" d="M115.63,201.63l-.94,47.22c0,.43,0,.84-.07,1.26-1.34,15.28-21.32,20.43-30.53,8.16l-7.44-9.91a16.73,16.73,0,0,0-10.91-6.51l-11.45-1.72c-15.22-2.29-20.09-22.46-7.15-30.78.35-.23.71-.44,1.08-.65l41.36-22.8A17.57,17.57,0,0,1,115.63,201.63Z"/>
    <ellipse class="cls-3" cx="113.16" cy="178.34" rx="46.5" ry="40.5" transform="translate(-98.05 179.51) rotate(-57.92)"/>
  </g>
  <g>
    <path class="cls-3" d="M198.1,216.46l-.06,0a11.58,11.58,0,0,1-5.78-15.33L232.12,113c5.35-12,6.73-22.53,3.43-26.11-5.65-6.12-9.55-5.77-10.83-5.65-7.85.71-16.92,11.27-20.08,16.28A11.59,11.59,0,0,1,185,85.22c1.6-2.55,16.19-25,37.52-27.06,7.59-.71,19,1,30.07,13,7.24,7.85,13.23,23.11.69,51.27l0,.07-39.87,88.14A11.59,11.59,0,0,1,198.1,216.46Z"/>
    <g>
      <path class="cls-2" d="M228,178.33c-6.61-.07-15.48-.89-23.62-4l-6.31,13.95c6.34,1.86,15.52,4,23.68,3.86Z"/>
      <path class="cls-2" d="M253.24,122.51l0-.07a1.42,1.42,0,0,0,.08-.18c-6.73.82-16.1,1.2-24.95-1.06l-5.08,11.23c7.41,1.48,17.16,2.7,24.92,1.14Z"/>
      <path class="cls-2" d="M234.48,107.06c7.24,1,16.7,1.59,24.28-.23a56.49,56.49,0,0,0,1.78-13.6c-5.79,2.54-14.66,5.71-23.94,6.34A58.83,58.83,0,0,1,234.48,107.06Z"/>
      <path class="cls-2" d="M210.59,160.58c6.8,1.88,16.06,3.81,24,3.24l6.81-15.07c-6.58.41-15.76.24-24.36-2.38Z"/>
      <path class="cls-2" d="M187.2,82c-1.16,1.61-1.91,2.78-2.21,3.25a11.59,11.59,0,0,0,19.65,12.29c.15-.24.32-.49.49-.75C200.55,91.91,194,85.75,187.2,82Z"/>
      <path class="cls-2" d="M192,201.85A11.58,11.58,0,0,0,198,216.43l.06,0a11.59,11.59,0,0,0,15.27-5.81l1.87-4.14C208.42,206.28,199.74,205.2,192,201.85Z"/>
      <path class="cls-2" d="M215.4,85.65c.73-.57,1.47-1.11,2.22-1.6,2.93-5.74,7.92-16.76,8.41-26a33.06,33.06,0,0,0-3.52.13c-10.37,1-19.14,6.8-25.61,12.81A75.38,75.38,0,0,1,215.4,85.65Z"/>
      <path class="cls-2" d="M232.61,84.12A24.85,24.85,0,0,1,235,86.35c6.57-1.2,15.63-3.39,22.76-7.18a28.77,28.77,0,0,0-5.21-8,42.37,42.37,0,0,0-13.91-10.31C238.23,65.58,236.84,75.27,232.61,84.12Z"/>
    </g>
  </g>
</svg>
