<svg id="Livello_1" data-name="Livello 1" xmlns="http://www.w3.org/2000/svg" viewBox="0 0 165.75 158.23">
  <defs>
    <style>
      .cls-1 {
        fill: #fabc02;
      }

      .cls-2 {
        fill: #66b032;
      }

      .cls-3 {
        fill: #fa7921;
      }

      .cls-4 {
        isolation: isolate;
      }

      .cls-5 {
        fill: #e55934;
      }
    </style>
  </defs>
  <title>Tavola disegno 5</title>
  <g>
    <rect id="Rectangle_42" data-name="Rectangle 42" class="cls-1" x="31.24" y="20.68" width="73.35" height="73.35" rx="17"/>
    <rect id="Rectangle_41" data-name="Rectangle 41" class="cls-2" x="46.49" y="30.12" width="73.35" height="73.35" rx="17"/>
    <rect id="Rectangle_4" data-name="Rectangle 4" class="cls-3" x="58.83" y="40.29" width="73.35" height="73.35" rx="17"/>
    <g id="le_mie_card" data-name="le mie card" class="cls-4">
      <g class="cls-4">
        <path class="cls-5" d="M31.88,137.37H28.35V123.84h3.53Z"/>
        <path class="cls-5" d="M44.5,133.25h-7a2.5,2.5,0,0,0,1,1.49,3.05,3.05,0,0,0,1.82.57,9.47,9.47,0,0,0,3.92-1v2.17a10.58,10.58,0,0,1-1.87.73,9.89,9.89,0,0,1-2.8.33,6.66,6.66,0,0,1-3.12-.68A4.63,4.63,0,0,1,34.52,135a5.42,5.42,0,0,1-.64-2.66,5.3,5.3,0,0,1,.64-2.62,4.48,4.48,0,0,1,1.93-1.82,6.92,6.92,0,0,1,3.12-.65,5.47,5.47,0,0,1,2.34.52,4.35,4.35,0,0,1,1.86,1.71,5.82,5.82,0,0,1,.73,3.06Zm-3.31-1.74a2.28,2.28,0,0,0-.47-1.52,1.65,1.65,0,0,0-1.36-.58,1.84,1.84,0,0,0-1.42.59,2.12,2.12,0,0,0-.54,1.51Z"/>
        <path class="cls-5" d="M69.88,137.37H66.36v-5.3a2.91,2.91,0,0,0-.35-1.58,1.2,1.2,0,0,0-1.09-.52,1.73,1.73,0,0,0-1.21.44,7.36,7.36,0,0,0-.93,1.12v5.84H59.26v-5.3a3.12,3.12,0,0,0-.32-1.55A1.21,1.21,0,0,0,57.8,130a1.58,1.58,0,0,0-.72.16,1.81,1.81,0,0,0-.53.35,4.55,4.55,0,0,0-.5.57l-.37.48v5.84H52.16v-9.94h3.52v1.43a5.16,5.16,0,0,1,1.61-1.22,4.37,4.37,0,0,1,1.89-.38,5.07,5.07,0,0,1,1,.09,3.34,3.34,0,0,1,.9.32,2.79,2.79,0,0,1,.81.61,3.15,3.15,0,0,1,.58.91,6.43,6.43,0,0,1,1.76-1.45,4.45,4.45,0,0,1,2.1-.48,3.85,3.85,0,0,1,2,.47,2.86,2.86,0,0,1,1.19,1.39,5.5,5.5,0,0,1,.39,2.19Z"/>
        <path class="cls-5" d="M75.67,137.37H72.14v-9.94h3.53Zm-.29-12.23a1.36,1.36,0,0,1-.44,1,1.42,1.42,0,0,1-1,.43,1.49,1.49,0,0,1-.75-.19,1.47,1.47,0,0,1-.72-1.28,1.43,1.43,0,0,1,.43-1,1.4,1.4,0,0,1,1-.44,1.43,1.43,0,0,1,1,.44A1.4,1.4,0,0,1,75.38,125.14Z"/>
        <path class="cls-5" d="M88.28,133.25h-7a2.46,2.46,0,0,0,1,1.49,3.05,3.05,0,0,0,1.82.57,9.47,9.47,0,0,0,3.92-1v2.17a10.58,10.58,0,0,1-1.87.73,9.89,9.89,0,0,1-2.8.33,6.66,6.66,0,0,1-3.12-.68A4.57,4.57,0,0,1,78.31,135a5.42,5.42,0,0,1-.64-2.66,5.3,5.3,0,0,1,.64-2.62,4.43,4.43,0,0,1,1.93-1.82,6.92,6.92,0,0,1,3.12-.65,5.47,5.47,0,0,1,2.34.52,4.35,4.35,0,0,1,1.86,1.71,5.82,5.82,0,0,1,.72,3.06ZM85,131.51a2.28,2.28,0,0,0-.47-1.52,1.65,1.65,0,0,0-1.36-.58,1.84,1.84,0,0,0-1.42.59,2.12,2.12,0,0,0-.54,1.51Z"/>
        <path class="cls-5" d="M104.47,136.91c-.3.11-.61.22-.93.31a8.36,8.36,0,0,1-2.43.33,6.2,6.2,0,0,1-2.76-.55,4.64,4.64,0,0,1-1.74-1.39,5,5,0,0,1-.84-1.7,5,5,0,0,1,0-3.07,5.1,5.1,0,0,1,.84-1.68,4.54,4.54,0,0,1,1.72-1.36,6.41,6.41,0,0,1,2.78-.54,8.72,8.72,0,0,1,1.79.15,13.21,13.21,0,0,1,1.41.42v2.77a9.4,9.4,0,0,0-2.69-.55,2.61,2.61,0,0,0-1.66.57,2.08,2.08,0,0,0-.73,1.75,2.39,2.39,0,0,0,.36,1.34,2.18,2.18,0,0,0,.92.79,2.65,2.65,0,0,0,1.11.26,5.68,5.68,0,0,0,1.21-.16c.44-.1,1-.25,1.64-.45Z"/>
        <path class="cls-5" d="M116.49,136.87a12.84,12.84,0,0,1-1.43.49,5.53,5.53,0,0,1-1.57.19,1.8,1.8,0,0,1-1.21-.31,1.67,1.67,0,0,1-.49-.75,5.35,5.35,0,0,1-1.26.76,4.64,4.64,0,0,1-1.82.3,3.57,3.57,0,0,1-1.75-.38,2.18,2.18,0,0,1-.94-.94,2.77,2.77,0,0,1-.26-1.18,2.41,2.41,0,0,1,.46-1.52,3.4,3.4,0,0,1,1.24-1,15,15,0,0,1,2.07-.79l1.11-.36.56-.19a4.34,4.34,0,0,0,.4-.17,1.91,1.91,0,0,0-.3-1.14c-.19-.27-.62-.41-1.27-.41a4.59,4.59,0,0,0-2.14.51,7.34,7.34,0,0,0-1.8,1.31v-2.7a6.19,6.19,0,0,1,1.41-.76,8.41,8.41,0,0,1,1.6-.45,9.34,9.34,0,0,1,1.67-.14,5.26,5.26,0,0,1,3.25.83,2.73,2.73,0,0,1,1.09,2.3v3.84a2.62,2.62,0,0,0,.1.81.38.38,0,0,0,.38.27,2.18,2.18,0,0,0,.9-.28ZM111.6,135v-2.35a9.56,9.56,0,0,0-1.83.91,1.29,1.29,0,0,0-.58,1.1,1,1,0,0,0,.29.76.94.94,0,0,0,.67.26,1.4,1.4,0,0,0,.72-.2A5.7,5.7,0,0,0,111.6,135Z"/>
        <path class="cls-5" d="M126.61,128l-1.29,3.52a2.43,2.43,0,0,0-1.63-.76,1.81,1.81,0,0,0-1.28.51,4.81,4.81,0,0,0-1,1.86v4.27h-3.51v-9.94h3.51v2.4a4.91,4.91,0,0,1,1.17-1.73,2.71,2.71,0,0,1,2-.84,2.8,2.8,0,0,1,1,.17A8.88,8.88,0,0,1,126.61,128Z"/>
        <path class="cls-5" d="M137.4,137.37h-3.53v-.9a5.61,5.61,0,0,1-1.18.78,4,4,0,0,1-1.71.3,4.61,4.61,0,0,1-2.13-.54,4.24,4.24,0,0,1-1.72-1.67,5.57,5.57,0,0,1-.67-2.87,6.37,6.37,0,0,1,.51-2.54,4.4,4.4,0,0,1,1.59-1.93,4.54,4.54,0,0,1,2.65-.74,5,5,0,0,1,1.59.21,4.31,4.31,0,0,1,1.07.55v-4.18h3.53Zm-3.53-3.16v-3.8c-.41-.23-.73-.39-1-.49a2,2,0,0,0-.82-.14,1.69,1.69,0,0,0-1.38.7,3,3,0,0,0-.55,1.91,2.67,2.67,0,0,0,.58,1.92,1.83,1.83,0,0,0,1.35.6,2.17,2.17,0,0,0,1-.2A3.92,3.92,0,0,0,133.87,134.21Z"/>
      </g>
    </g>
  </g>
</svg>
