<svg id="Livello_1" data-name="Livello 1" xmlns="http://www.w3.org/2000/svg" xmlns:xlink="http://www.w3.org/1999/xlink" viewBox="0 0 240.36 134.64">
  <defs>
    <style>
      .cls-1 {
        fill: none;
      }

      .cls-2 {
        clip-path: url(#clip-path);
      }

      .cls-3 {
        fill: #fff;
      }

      .cls-4, .cls-6, .cls-7, .cls-8 {
        fill: #e55934;
      }

      .cls-5, .cls-6, .cls-7, .cls-8 {
        isolation: isolate;
      }

      .cls-6, .cls-7, .cls-8 {
        font-size: 25px;
        font-family: GillSans-Bold, Gill Sans;
        font-weight: 700;
      }

      .cls-6 {
        letter-spacing: -0.01em;
      }

      .cls-8 {
        letter-spacing: -0.06em;
      }
    </style>
    <clipPath id="clip-path" transform="translate(0.03 0)">
      <path class="cls-1" d="M38,0H202.33a38,38,0,0,1,38,38V96.64a38,38,0,0,1-38,38H38a38,38,0,0,1-38-38V38A38,38,0,0,1,38,0Z"/>
    </clipPath>
  </defs>
  <title>colore</title>
  <g class="cls-2">
    <rect class="cls-3" width="240.31" height="134.64"/>
    <path class="cls-4" d="M38,3A35,35,0,0,0,3,38V96.64a35,35,0,0,0,35,35H202.33a35,35,0,0,0,35-35V38a35,35,0,0,0-35-35H38m0-3H202.33a38,38,0,0,1,38,38V96.64a38,38,0,0,1-38,38H38a38,38,0,0,1-38-38V38A38,38,0,0,1,38,0Z" transform="translate(0.03 0)"/>
  </g>
  <g id="COLORE">
    <g class="cls-5">
      <text class="cls-6" transform="translate(89.61 79)">C</text>
      <text class="cls-7" transform="translate(107.84 79)">O</text>
      <text class="cls-8" transform="translate(129.11 79)">L</text>
      <text class="cls-7" transform="translate(143.5 79)">ORE</text>
    </g>
  </g>
</svg>
