<svg id="Livello_1" data-name="Livello 1" xmlns="http://www.w3.org/2000/svg" viewBox="0 0 305 301">
  <defs>
    <style>
      .cls-1 {
        fill: #9bc53d;
      }

      .cls-2 {
        fill: #f1c900;
      }

      .cls-3 {
        fill: #fbf6f5;
      }

      .cls-4 {
        fill: #e55934;
        stroke: #e55934;
        stroke-width: 3px;
      }

      .cls-5 {
        fill: #224fdd;
      }
    </style>
  </defs>
  <title>Tavola disegno 5</title>
  <rect class="cls-1" x="29.5" y="27.5" width="246" height="246" rx="15.5"/>
  <path class="cls-2" d="M77.4,226.45l-8.05,2.72L55,186.55l8-2.72Z"/>
  <path class="cls-3" d="M107.89,207.27l-35,3.91-.12-1.08q1.75-2.61,3.81-6.19t5.27-9.44q1.48-2.66,2.77-5.21a44.4,44.4,0,0,0,2.12-4.91,29.24,29.24,0,0,0,1.31-5.14,20.27,20.27,0,0,0,.15-5.61,10.06,10.06,0,0,0-2.55-6.06,5.71,5.71,0,0,0-5-1.87Q75,166.3,70.25,174l-1.47-13.18q1.78-1.76,2.94-2.82a25.64,25.64,0,0,1,2.71-2.14,19.89,19.89,0,0,1,3.73-2A17.57,17.57,0,0,1,83,152.72a14.63,14.63,0,0,1,7.91,1.22A14.34,14.34,0,0,1,97,159.33a20.29,20.29,0,0,1,3,8.95,25.68,25.68,0,0,1-.12,7,31.19,31.19,0,0,1-1.28,5.41q-.74,2.09-2,5.16a113.25,113.25,0,0,1-5,10.52l14.92-1.67Z"/>
  <path class="cls-4" d="M169.36,195.11a19.44,19.44,0,0,1,.71,19,27.32,27.32,0,0,1-5.36,7.36,32.91,32.91,0,0,1-6.82,5.14,58,58,0,0,1-12,4.86,59.63,59.63,0,0,1-12.16,2.39l-8.25-14.79a41.45,41.45,0,0,0,9.88.56,21.15,21.15,0,0,0,9.11-2.62,12.76,12.76,0,0,0,4.65-4.09,9.43,9.43,0,0,0,1.63-4.69,7.77,7.77,0,0,0-1-4.29,8.74,8.74,0,0,0-3.85-3.72,10.76,10.76,0,0,0-5.65-.93,16.49,16.49,0,0,0-6.59,2.15l-2.17,1.22-5.92-10.61,2.56-1.43a12.51,12.51,0,0,0,4.86-4.39,9.29,9.29,0,0,0,1.45-4.84,8.19,8.19,0,0,0-.9-3.89,8.29,8.29,0,0,0-5.3-4,9.47,9.47,0,0,0-7.35,1.07,24.39,24.39,0,0,0-6.25,5.11,33.58,33.58,0,0,0-4.87,7.09l-7.06-12.65a83.89,83.89,0,0,1,7.19-8,41.83,41.83,0,0,1,8.77-6.36q7.59-4.25,14.3-4.18a21.93,21.93,0,0,1,11.35,2.86,17.93,17.93,0,0,1,6.66,6.42,16.62,16.62,0,0,1,2,6.63,21.47,21.47,0,0,1-.49,7.13,20.79,20.79,0,0,1-2.38,6,26.51,26.51,0,0,1,10.34,1.83Q165.64,188.47,169.36,195.11Z"/>
  <path class="cls-5" d="M257.27,128.55l-12.59,7.89,13.18,21-28.32,17.75-13.17-21-43.21,27.08-11.63-18.56L174,74.32,196.79,60l37.41,59.68,12.59-7.89Zm-51.39,8.91-19.56-31.21L179.48,154Z"/>
</svg>
