<svg id="Livello_1" data-name="Livello 1" xmlns="http://www.w3.org/2000/svg" viewBox="0 0 305 301">
  <defs>
    <style>
      .cls-1 {
        fill: #5bbee9;
      }

      .cls-2 {
        opacity: 0.16;
      }

      .cls-3 {
        fill: #fff;
      }

      .cls-4 {
        fill: #fddc03;
      }
    </style>
  </defs>
  <title>8</title>
  <rect class="cls-1" x="29.5" y="27.5" width="246" height="246" rx="15.5"/>
  <g class="cls-2">
    <path class="cls-3" d="M113.37,105.36q0-9.92,6.36-20.08T138.3,68.43q12.21-6.68,28.48-6.68,15.12,0,26.71,5.59a43.35,43.35,0,0,1,17.89,15.17,37.31,37.31,0,0,1,6.31,20.87,32.24,32.24,0,0,1-3.6,15.54,47.43,47.43,0,0,1-8.55,11.53q-5,4.86-17.79,16.33a73.91,73.91,0,0,0-5.69,5.68,23.6,23.6,0,0,0-3.18,4.49,21.56,21.56,0,0,0-1.62,4.07q-.57,2-1.72,7.15-2,10.85-12.41,10.84a12.7,12.7,0,0,1-9.13-3.54q-3.7-3.56-3.7-10.54a37,37,0,0,1,9.91-26.45A165.12,165.12,0,0,1,172.31,127q6.67-5.85,9.65-8.82a30.14,30.14,0,0,0,5-6.62,16.11,16.11,0,0,0,2-7.93,18.44,18.44,0,0,0-6.21-14.09q-6.21-5.73-16-5.73-11.47,0-16.9,5.79t-9.18,17q-3.55,11.79-13.46,11.79a13.22,13.22,0,0,1-9.86-4.12A12.57,12.57,0,0,1,113.37,105.36ZM164.28,219.7a16.42,16.42,0,0,1-11.12-4.12q-4.74-4.12-4.74-11.53A14.87,14.87,0,0,1,153,193a15.49,15.49,0,0,1,11.27-4.48,15.32,15.32,0,0,1,15.54,15.54q0,7.3-4.7,11.48A15.81,15.81,0,0,1,164.28,219.7Z"/>
  </g>
  <path class="cls-3" d="M88.24,118q0-9.9,6.36-20.08t18.57-16.85q12.21-6.67,28.48-6.67,15.12,0,26.71,5.58a43.3,43.3,0,0,1,17.89,15.18A37.2,37.2,0,0,1,192.56,116a32.28,32.28,0,0,1-3.6,15.55,47.57,47.57,0,0,1-8.55,11.52q-5,4.86-17.79,16.33a72.06,72.06,0,0,0-5.69,5.69,23.57,23.57,0,0,0-3.18,4.48,23,23,0,0,0-1.62,4.07q-.57,2-1.72,7.15-2,10.84-12.41,10.85a12.67,12.67,0,0,1-9.13-3.55q-3.7-3.54-3.7-10.54a36.93,36.93,0,0,1,9.91-26.44,162.86,162.86,0,0,1,12.1-11.53q6.67-5.83,9.65-8.82a30.14,30.14,0,0,0,5-6.62,16.08,16.08,0,0,0,2-7.93,18.42,18.42,0,0,0-6.21-14.08q-6.19-5.75-16-5.74-11.47,0-16.9,5.79t-9.18,17.06q-3.55,11.79-13.46,11.79a13.23,13.23,0,0,1-9.86-4.13A12.57,12.57,0,0,1,88.24,118Zm50.91,114.34A16.38,16.38,0,0,1,128,228.22c-3.17-2.74-4.75-6.59-4.75-11.52a14.84,14.84,0,0,1,4.59-11.06,15.5,15.5,0,0,1,11.27-4.49,15.33,15.33,0,0,1,15.54,15.55q0,7.29-4.69,11.47A15.85,15.85,0,0,1,139.15,232.34Z"/>
  <path class="cls-4" d="M100.68,110.45q0-9.9,6.36-20.08t18.57-16.85q12.21-6.67,28.49-6.67,15.12,0,26.7,5.58a43.24,43.24,0,0,1,17.89,15.18A37.21,37.21,0,0,1,205,108.47a32.28,32.28,0,0,1-3.6,15.55,47.85,47.85,0,0,1-8.56,11.53q-4.95,4.84-17.79,16.32a71.72,71.72,0,0,0-5.68,5.69A22.7,22.7,0,0,0,166.2,162a21.56,21.56,0,0,0-1.62,4.07c-.38,1.36-1,3.74-1.72,7.15q-2,10.85-12.42,10.85a12.65,12.65,0,0,1-9.12-3.55q-3.7-3.54-3.71-10.54a36.93,36.93,0,0,1,9.91-26.44,164.88,164.88,0,0,1,12.1-11.53q6.67-5.84,9.65-8.82a29.31,29.31,0,0,0,5-6.62,16,16,0,0,0,2-7.93,18.42,18.42,0,0,0-6.21-14.08q-6.21-5.75-16-5.74-11.49,0-16.91,5.79T128,111.71q-3.54,11.79-13.45,11.79a13.21,13.21,0,0,1-9.86-4.13A12.58,12.58,0,0,1,100.68,110.45Zm50.91,114.34a16.4,16.4,0,0,1-11.11-4.12c-3.16-2.74-4.75-6.59-4.75-11.52a14.84,14.84,0,0,1,4.59-11.06,15.52,15.52,0,0,1,11.27-4.49,15.34,15.34,0,0,1,15.55,15.55q0,7.29-4.7,11.47A15.85,15.85,0,0,1,151.59,224.79Z"/>
</svg>
