<svg id="Livello_1" data-name="Livello 1" xmlns="http://www.w3.org/2000/svg" viewBox="0 0 399.78 446.94">
  <defs>
    <style>
      .cls-1 {
        fill: #42b275;
      }

      .cls-2 {
        fill: #3fa068;
      }

      .cls-3 {
        fill: #ffd500;
      }

      .cls-4 {
        fill: #f5ad00;
      }

      .cls-5 {
        fill: #fff;
      }

      .cls-6 {
        fill: #040405;
      }

      .cls-7, .cls-9 {
        fill: none;
      }

      .cls-7 {
        stroke: #42b275;
        stroke-miterlimit: 10;
        stroke-width: 10px;
      }

      .cls-8 {
        fill: #ffdf00;
      }

      .cls-9 {
        stroke: #ffdf00;
        stroke-linecap: round;
        stroke-linejoin: round;
        stroke-width: 3.03px;
      }
    </style>
  </defs>
  <path id="Path_8" data-name="Path 8" class="cls-1" d="M316,430.09H94.63a16.85,16.85,0,0,1-16.86-16.85h0V263.82A16.85,16.85,0,0,1,94.63,247H316a16.85,16.85,0,0,1,16.86,16.85V413.23A16.84,16.84,0,0,1,316,430.08h0Z"/>
  <path id="Path_10" data-name="Path 10" class="cls-2" d="M180.89,430.09c-46.07,0,188.28-170.49,117.68-180.6A92.37,92.37,0,0,1,317.52,247c7.59,0,14.58,5.57,15.15,16.41V413.66s0,15.15-35.23,16.42Z"/>
  <rect id="Rectangle_3" data-name="Rectangle 3" class="cls-1" x="113.77" y="97.94" width="183.12" height="138.92" rx="9.74"/>
  <circle id="Ellipse_4" data-name="Ellipse 4" class="cls-3" cx="156.18" cy="150.98" r="20.21"/>
  <path id="Path_11" data-name="Path 11" class="cls-4" d="M138.33,160.46A20.21,20.21,0,0,1,170,136.25"/>
  <path id="Path_12" data-name="Path 12" class="cls-4" d="M141.33,164.67a19.85,19.85,0,0,1-3-4.22"/>
  <circle id="Ellipse_6" data-name="Ellipse 6" class="cls-5" cx="167.87" cy="140.25" r="8.21"/>
  <circle id="Ellipse_7" data-name="Ellipse 7" class="cls-3" cx="253.43" cy="150.98" r="20.21"/>
  <path id="Path_13" data-name="Path 13" class="cls-4" d="M235.57,160.46a20.21,20.21,0,0,1,31.68-24.21"/>
  <path id="Path_14" data-name="Path 14" class="cls-4" d="M238.57,164.67a20.16,20.16,0,0,1-3-4.22"/>
  <circle id="Ellipse_9" data-name="Ellipse 9" class="cls-5" cx="265.11" cy="140.25" r="8.21"/>
  <circle id="Ellipse_5" data-name="Ellipse 5" class="cls-6" cx="156.18" cy="150.98" r="9.47"/>
  <circle id="Ellipse_8" data-name="Ellipse 8" class="cls-6" cx="253.43" cy="150.98" r="9.47"/>
  <path id="Path_9" data-name="Path 9" class="cls-3" d="M236.23,98.58a37.27,37.27,0,0,0-61.87.12Z"/>
  <path class="cls-7" d="M123.81,173.35s33.62-14.1,64.46,0"/>
  <path class="cls-7" d="M222.23,173s33.61-14.1,64.45,0"/>
  <path class="cls-8" d="M252,50.7l2.89-5.49a14.57,14.57,0,0,1,8.07,0,5.2,5.2,0,0,1,3.66,3.63,7.33,7.33,0,0,1-.12,3.72,30,30,0,0,1-3.13,6.5c-2,3.43-2.83,5.74-2.55,6.89a3.43,3.43,0,0,0,.41.81A7.63,7.63,0,0,1,257.8,66a3.21,3.21,0,0,1-1.51-2.16,4.7,4.7,0,0,1,0-2.73,38.75,38.75,0,0,1,2.5-5,8,8,0,0,0,1.5-5.29,2.36,2.36,0,0,0-1.7-1.71,6,6,0,0,0-3.35,0A12,12,0,0,0,252,50.7Zm15,20a2,2,0,0,1-.66,2,5,5,0,0,1-2.57,1.42,4.74,4.74,0,0,1-2.74,0,2,2,0,0,1-1.5-1.46,2.29,2.29,0,0,1,.63-2,4.53,4.53,0,0,1,2.42-1.41,5.08,5.08,0,0,1,2.89,0A2.17,2.17,0,0,1,267,70.75Z"/>
  <path class="cls-8" d="M275,35.9l5.51-9.64c6.18-1.39,11.11-1.51,14.81-.32a9,9,0,0,1,6.64,6.1,12,12,0,0,1-.34,6.46,52.52,52.52,0,0,1-5.94,11.39Q290,59,290.74,62a4.84,4.84,0,0,0,.71,1.35,14.24,14.24,0,0,1-6.2-1.23,5.51,5.51,0,0,1-2.71-3.71,7.85,7.85,0,0,1,.23-4.77,63,63,0,0,1,4.72-8.56q3.7-6.06,2.89-9.23a4,4,0,0,0-3.07-3,11.92,11.92,0,0,0-6.16.18A22.71,22.71,0,0,0,275,35.9Zm27.12,34.33a3.63,3.63,0,0,1-1.29,3.55,9.83,9.83,0,0,1-4.75,2.51,9.21,9.21,0,0,1-5.1,0,3.66,3.66,0,0,1-2.69-2.51,3.89,3.89,0,0,1,1.21-3.65A9,9,0,0,1,294,67.6a9.74,9.74,0,0,1,5.3,0,3.74,3.74,0,0,1,2.8,2.63Z"/>
  <path class="cls-8" d="M309.4,54.26,313.22,47a19.33,19.33,0,0,1,10.56,0,6.8,6.8,0,0,1,4.81,4.76,9.73,9.73,0,0,1-.16,4.91,39.19,39.19,0,0,1-4,8.56c-2.69,4.53-3.82,7.55-3.37,9.09a4.53,4.53,0,0,0,.52,1,9.63,9.63,0,0,1-4.44-1,4.35,4.35,0,0,1-2-2.85,6.25,6.25,0,0,1,.1-3.61,47.61,47.61,0,0,1,3.27-6.45c1.72-3,2.36-5.35,2-7a3.09,3.09,0,0,0-2.22-2.26,7.67,7.67,0,0,0-4.4,0A14.62,14.62,0,0,0,309.4,54.26Zm19.78,26.41a2.82,2.82,0,0,1-.87,2.69,6.72,6.72,0,0,1-3.38,1.85,6.24,6.24,0,0,1-3.63,0,2.75,2.75,0,0,1-2-2,3,3,0,0,1,.83-2.77,6,6,0,0,1,3.19-1.86,6.48,6.48,0,0,1,3.8,0,2.89,2.89,0,0,1,2.08,2.1Z"/>
  <path class="cls-9" d="M197.48,211s19.29-24.23,44.43-10.09"/>
</svg>
