<svg id="Livello_1" data-name="Livello 1" xmlns="http://www.w3.org/2000/svg" viewBox="0 0 399.78 381.64">
  <defs>
    <style>
      .cls-1 {
        fill: #b47cdd;
      }

      .cls-2 {
        fill: #a63ad8;
      }

      .cls-3 {
        fill: #ffd500;
      }

      .cls-4 {
        fill: #eb601a;
      }

      .cls-5 {
        fill: #de5511;
      }

      .cls-6 {
        fill: #f5ad00;
      }

      .cls-7 {
        fill: #fff;
      }

      .cls-8 {
        fill: #040405;
      }
    </style>
  </defs>
  <path id="Path_8" data-name="Path 8" class="cls-1" d="M310.6,364.79H89.19a16.85,16.85,0,0,1-16.86-16.85h0V198.52a16.85,16.85,0,0,1,16.86-16.85H310.6a16.85,16.85,0,0,1,16.85,16.85V347.93a16.84,16.84,0,0,1-16.85,16.85h0Z"/>
  <path id="Path_10" data-name="Path 10" class="cls-2" d="M175.46,364.79c-46.08,0,188.27-170.49,117.68-180.6a92.28,92.28,0,0,1,18.94-2.52c7.59,0,14.58,5.57,15.15,16.41V348.36s0,15.15-35.23,16.42Z"/>
  <rect id="Rectangle_3" data-name="Rectangle 3" class="cls-1" x="108.33" y="32.64" width="183.12" height="138.92" rx="9.74"/>
  <path id="Path_15" data-name="Path 15" class="cls-3" d="M221.54,118.67a5,5,0,0,0-7,0,5.08,5.08,0,0,0-.73.93,15.44,15.44,0,0,1-27.4-.61,4.92,4.92,0,0,0-6.71-1.86h0a4.55,4.55,0,0,0-.81.57,19.52,19.52,0,0,0-7,14.56c0,12.15,12.43,22,27.78,22s27.78-9.85,27.78-22A19.23,19.23,0,0,0,221.54,118.67Z"/>
  <path id="Path_16" data-name="Path 16" class="cls-4" d="M185.29,151.14a3.51,3.51,0,0,1-2.1-3V148c0-4.15,7.26-7.52,16.21-7.52s16.22,3.37,16.22,7.52a4,4,0,0,1-.73,2.25,3.51,3.51,0,0,1-1.59,1.28A34.71,34.71,0,0,1,185.29,151.14Z"/>
  <path id="Path_17" data-name="Path 17" class="cls-5" d="M199.68,154.23s15.83-3.63,7.92-12.73c0,0,12.1,2.91,6.51,9.54A32,32,0,0,1,199.68,154.23Z"/>
  <circle id="Ellipse_4" data-name="Ellipse 4" class="cls-3" cx="150.75" cy="85.68" r="20.21"/>
  <path id="Path_11" data-name="Path 11" class="cls-6" d="M132.89,95.16A20.21,20.21,0,0,1,164.57,71"/>
  <path id="Path_12" data-name="Path 12" class="cls-6" d="M135.89,99.37a20.21,20.21,0,0,1-3-4.22"/>
  <circle id="Ellipse_6" data-name="Ellipse 6" class="cls-7" cx="162.43" cy="74.95" r="8.21"/>
  <circle id="Ellipse_7" data-name="Ellipse 7" class="cls-3" cx="247.99" cy="85.68" r="20.21"/>
  <path id="Path_13" data-name="Path 13" class="cls-6" d="M230.14,95.16A20.21,20.21,0,0,1,261.81,71"/>
  <path id="Path_14" data-name="Path 14" class="cls-6" d="M233.13,99.37a20.16,20.16,0,0,1-3-4.22"/>
  <circle id="Ellipse_9" data-name="Ellipse 9" class="cls-7" cx="259.67" cy="74.95" r="8.21"/>
  <circle id="Ellipse_5" data-name="Ellipse 5" class="cls-8" cx="150.74" cy="85.68" r="9.47"/>
  <circle id="Ellipse_8" data-name="Ellipse 8" class="cls-8" cx="247.99" cy="85.68" r="9.47"/>
  <path id="Path_9" data-name="Path 9" class="cls-3" d="M230.79,33.28a37.26,37.26,0,0,0-61.86.12Z"/>
</svg>
