<svg id="Livello_1" data-name="Livello 1" xmlns="http://www.w3.org/2000/svg" viewBox="0 0 399.78 381.64">
  <defs>
    <style>
      .cls-1 {
        fill: #b47cdd;
      }

      .cls-2 {
        fill: none;
        stroke: #000;
        stroke-linecap: round;
        stroke-linejoin: round;
        stroke-width: 2.61px;
      }

      .cls-3 {
        fill: #ffde00;
      }

      .cls-4 {
        fill: #a63ad8;
      }

      .cls-5 {
        fill: #f2bd00;
      }

      .cls-6 {
        fill: #fff;
      }

      .cls-7 {
        fill: #ffdf00;
      }

      .cls-8 {
        fill: #fa7921;
      }

      .cls-9 {
        fill: #e56e1f;
      }
    </style>
  </defs>
  <title>robottinaWow</title>
  <rect id="Rectangle_11" data-name="Rectangle 11" class="cls-1" x="111.55" y="32.12" width="183.74" height="139.39" rx="34.87"/>
  <g id="Group_11" data-name="Group 11">
    <path id="Path_22" data-name="Path 22" class="cls-2" d="M267.62,77s13.82-1.8,11.95-7.42"/>
    <path id="Path_23" data-name="Path 23" class="cls-2" d="M258.27,67.66s13.82-1.81,12-7.42"/>
    <path id="Path_24" data-name="Path 24" class="cls-2" d="M263.88,71.4s13.82-1.81,11.95-7.4"/>
  </g>
  <g id="Group_12" data-name="Group 12">
    <path id="Path_25" data-name="Path 25" class="cls-2" d="M139.45,77s-13.82-1.8-11.95-7.42"/>
    <path id="Path_26" data-name="Path 26" class="cls-2" d="M148.81,67.66S135,65.85,136.86,60.24"/>
    <path id="Path_27" data-name="Path 27" class="cls-2" d="M143.2,71.4s-13.83-1.81-12-7.42"/>
  </g>
  <path id="Path_28" data-name="Path 28" class="cls-1" d="M306.44,365.36h-206a25,25,0,0,1-25-24.95V206.6a25,25,0,0,1,25-25h206a25,25,0,0,1,25,25h0V340.42A25,25,0,0,1,306.44,365.36Z"/>
  <path id="Path_29" data-name="Path 29" class="cls-3" d="M234.41,32.76a37.38,37.38,0,0,0-62.07.12Z"/>
  <path id="Path_30" data-name="Path 30" class="cls-4" d="M178.9,365.36c-46.23,0,188.91-171.06,118.07-181.2a92.27,92.27,0,0,1,19-2.53c7.62,0,14.63,5.58,15.2,16.46v150.8s0,15.2-35.35,16.46Z"/>
  <g id="Group_13" data-name="Group 13">
    <circle id="Ellipse_10" data-name="Ellipse 10" class="cls-3" cx="154.1" cy="85.34" r="20.27"/>
    <path id="Path_31" data-name="Path 31" class="cls-5" d="M136.19,94.84A20.28,20.28,0,0,1,168,70.55"/>
    <path id="Path_32" data-name="Path 32" class="cls-5" d="M139.21,99.08a20.33,20.33,0,0,1-3-4.24"/>
    <circle id="Ellipse_11" data-name="Ellipse 11" cx="154.1" cy="85.34" r="9.5"/>
    <circle id="Ellipse_12" data-name="Ellipse 12" class="cls-6" cx="165.82" cy="74.57" r="8.24"/>
  </g>
  <g id="Group_14" data-name="Group 14">
    <circle id="Ellipse_13" data-name="Ellipse 13" class="cls-3" cx="251.67" cy="85.34" r="20.27"/>
    <path id="Path_33" data-name="Path 33" class="cls-5" d="M233.76,94.84a20.28,20.28,0,0,1,31.79-24.29"/>
    <path id="Path_34" data-name="Path 34" class="cls-5" d="M236.77,99.08a20.33,20.33,0,0,1-3-4.24"/>
    <circle id="Ellipse_14" data-name="Ellipse 14" cx="251.67" cy="85.34" r="9.5" transform="matrix(0.16, -0.99, 0.99, 0.16, 127.12, 320.09)"/>
    <circle id="Ellipse_15" data-name="Ellipse 15" class="cls-6" cx="263.39" cy="74.57" r="8.24"/>
  </g>
  <g>
    <ellipse class="cls-7" cx="212.79" cy="139.2" rx="23.02" ry="18.02" transform="translate(-12.12 20.57) rotate(-5.38)"/>
    <g>
      <path id="Path_16" data-name="Path 16" class="cls-8" d="M204.9,154.23a4.2,4.2,0,0,1-2-3.14l0-.2c-.59-4.66,4.49-9.15,11.33-10s12.88,2.24,13.46,6.9a6,6,0,0,1-.24,2.59,3.2,3.2,0,0,1-1,1.61A19.14,19.14,0,0,1,204.9,154.23Z"/>
      <path id="Path_17" data-name="Path 17" class="cls-9" d="M216.35,156.31s11.61-5.6,4.26-15.05c0,0,9.67,2.1,6.33,10.08A18.47,18.47,0,0,1,216.35,156.31Z"/>
    </g>
  </g>
</svg>
