<svg id="Livello_1" data-name="Livello 1" xmlns="http://www.w3.org/2000/svg" viewBox="0 0 399.78 416.72">
  <defs>
    <style>
      .cls-1 {
        fill: #b47cdd;
      }

      .cls-2, .cls-7 {
        fill: none;
        stroke-linecap: round;
        stroke-linejoin: round;
      }

      .cls-2 {
        stroke: #000;
        stroke-width: 2.61px;
      }

      .cls-3 {
        fill: #ffde00;
      }

      .cls-4 {
        fill: #a63ad8;
      }

      .cls-5 {
        fill: #f2bd00;
      }

      .cls-6 {
        fill: #fff;
      }

      .cls-7 {
        stroke: #ffdf00;
        stroke-width: 2.95px;
      }

      .cls-8 {
        fill: #ffdf00;
      }
    </style>
  </defs>
  <title>robottinaDefault</title>
  <rect id="Rectangle_11" data-name="Rectangle 11" class="cls-1" x="111.55" y="67.2" width="183.74" height="139.39" rx="34.87"/>
  <g id="Group_11" data-name="Group 11">
    <path id="Path_22" data-name="Path 22" class="cls-2" d="M267.62,112.08s13.82-1.8,11.95-7.42"/>
    <path id="Path_23" data-name="Path 23" class="cls-2" d="M258.27,102.74s13.82-1.81,12-7.42"/>
    <path id="Path_24" data-name="Path 24" class="cls-2" d="M263.88,106.48s13.82-1.81,11.95-7.4"/>
  </g>
  <g id="Group_12" data-name="Group 12">
    <path id="Path_25" data-name="Path 25" class="cls-2" d="M139.45,112.08s-13.82-1.8-11.95-7.42"/>
    <path id="Path_26" data-name="Path 26" class="cls-2" d="M148.81,102.74s-13.81-1.81-11.95-7.42"/>
    <path id="Path_27" data-name="Path 27" class="cls-2" d="M143.2,106.48s-13.83-1.81-12-7.42"/>
  </g>
  <path id="Path_28" data-name="Path 28" class="cls-1" d="M306.44,400.44h-206a25,25,0,0,1-25-24.95V241.68a25,25,0,0,1,25-25h206a25,25,0,0,1,25,25h0V375.5A25,25,0,0,1,306.44,400.44Z"/>
  <path id="Path_29" data-name="Path 29" class="cls-3" d="M234.41,67.84a37.38,37.38,0,0,0-62.07.12Z"/>
  <path id="Path_30" data-name="Path 30" class="cls-4" d="M178.9,400.44c-46.23,0,188.91-171.06,118.07-181.2a92.27,92.27,0,0,1,19-2.53c7.62,0,14.63,5.58,15.2,16.46V384s0,15.2-35.35,16.46Z"/>
  <g id="Group_13" data-name="Group 13">
    <circle id="Ellipse_10" data-name="Ellipse 10" class="cls-3" cx="154.1" cy="120.42" r="20.27"/>
    <path id="Path_31" data-name="Path 31" class="cls-5" d="M136.19,129.92A20.28,20.28,0,0,1,168,105.63"/>
    <path id="Path_32" data-name="Path 32" class="cls-5" d="M139.21,134.16a20.33,20.33,0,0,1-3-4.24"/>
    <circle id="Ellipse_11" data-name="Ellipse 11" cx="154.1" cy="120.42" r="9.5"/>
    <circle id="Ellipse_12" data-name="Ellipse 12" class="cls-6" cx="165.82" cy="109.65" r="8.24"/>
  </g>
  <g id="Group_14" data-name="Group 14">
    <circle id="Ellipse_13" data-name="Ellipse 13" class="cls-3" cx="251.67" cy="120.42" r="20.27"/>
    <path id="Path_33" data-name="Path 33" class="cls-5" d="M233.76,129.92a20.28,20.28,0,0,1,31.79-24.29"/>
    <path id="Path_34" data-name="Path 34" class="cls-5" d="M236.77,134.16a20.33,20.33,0,0,1-3-4.24"/>
    <circle id="Ellipse_14" data-name="Ellipse 14" cx="251.67" cy="120.42" r="9.5" transform="matrix(0.16, -0.99, 0.99, 0.16, 92.49, 349.55)"/>
    <circle id="Ellipse_15" data-name="Ellipse 15" class="cls-6" cx="263.39" cy="109.65" r="8.24"/>
  </g>
  <path class="cls-7" d="M185,184s18.76-23.64,43.23-9.82"/>
  <path class="cls-8" d="M262.11,39.19l2.82-5.35q4.88-1.1,7.81-.05a5.06,5.06,0,0,1,3.55,3.53,7.25,7.25,0,0,1-.12,3.62,29.19,29.19,0,0,1-3,6.33q-2.91,5-2.48,6.7a3.07,3.07,0,0,0,.38.77,7.34,7.34,0,0,1-3.28-.75,3.2,3.2,0,0,1-1.46-2.1,4.65,4.65,0,0,1,.07-2.67,36,36,0,0,1,2.42-4.76c1.27-2.24,1.75-4,1.45-5.15a2.3,2.3,0,0,0-1.65-1.67,5.89,5.89,0,0,0-3.25,0A11.28,11.28,0,0,0,262.11,39.19Zm14.61,19.52a2,2,0,0,1-.64,2,5.1,5.1,0,0,1-2.5,1.37A4.58,4.58,0,0,1,270.9,62a2,2,0,0,1-1.44-1.43,2.17,2.17,0,0,1,.6-2,4.45,4.45,0,0,1,2.36-1.37,4.81,4.81,0,0,1,2.8,0A2.14,2.14,0,0,1,276.72,58.71Z"/>
  <path class="cls-8" d="M284.53,24.69l5.35-9.38q9-2,14.4-.3t6.46,6a12.05,12.05,0,0,1-.33,6.29q-1,3.54-5.79,11.08-5.5,8.77-4.77,11.71a4.8,4.8,0,0,0,.69,1.33,14,14,0,0,1-6-1.21,5.38,5.38,0,0,1-2.64-3.61,7.68,7.68,0,0,1,.22-4.63,60.82,60.82,0,0,1,4.61-8.34q3.58-5.88,2.81-9a3.94,3.94,0,0,0-3-2.85,11.55,11.55,0,0,0-6,.17A22,22,0,0,0,284.53,24.69Zm26.39,33.47a3.57,3.57,0,0,1-1.26,3.47A9.81,9.81,0,0,1,305,64.07a9,9,0,0,1-5,0,3.51,3.51,0,0,1-2.61-2.44,3.71,3.71,0,0,1,1.17-3.55A8.67,8.67,0,0,1,303,55.62a9.29,9.29,0,0,1,5.16,0A3.69,3.69,0,0,1,310.92,58.16Z"/>
  <path class="cls-8" d="M318,42.65l3.71-7q6.42-1.45,10.29-.06t4.68,4.64a9.64,9.64,0,0,1-.16,4.77,38.19,38.19,0,0,1-4,8.33q-3.84,6.61-3.27,8.84a3.72,3.72,0,0,0,.51,1,9.62,9.62,0,0,1-4.33-1,4.28,4.28,0,0,1-1.93-2.77,6.15,6.15,0,0,1,.11-3.51,43.77,43.77,0,0,1,3.18-6.27q2.51-4.43,1.9-6.78a3,3,0,0,0-2.16-2.21,7.83,7.83,0,0,0-4.29.06A14.8,14.8,0,0,0,318,42.65Zm19.25,25.71a2.72,2.72,0,0,1-.85,2.61,6.57,6.57,0,0,1-3.28,1.79,6,6,0,0,1-3.54-.06,2.68,2.68,0,0,1-1.9-1.88,2.88,2.88,0,0,1,.79-2.68,5.94,5.94,0,0,1,3.11-1.81,6.3,6.3,0,0,1,3.69.07A2.81,2.81,0,0,1,337.27,68.36Z"/>
</svg>
