<svg id="Livello_1" data-name="Livello 1" xmlns="http://www.w3.org/2000/svg" viewBox="0 0 399.78 381.64">
  <defs>
    <style>
      .cls-1 {
        fill: #56beec;
      }

      .cls-2 {
        fill: #00b9e6;
      }

      .cls-3 {
        fill: #ffdf00;
      }

      .cls-4 {
        fill: #f2bd00;
      }

      .cls-5 {
        fill: #fff;
      }

      .cls-6 {
        fill: #fb7900;
      }

      .cls-7 {
        fill: #e66e02;
      }
    </style>
  </defs>
  <title>Tavola disegno 1</title>
  <g>
    <path id="Path_8" data-name="Path 8" class="cls-1" d="M310.65,364.88H89.13A16.86,16.86,0,0,1,72.27,348h0V198.51a16.86,16.86,0,0,1,16.86-16.85H310.65a16.86,16.86,0,0,1,16.86,16.86V348A16.86,16.86,0,0,1,310.65,364.88Z"/>
    <path id="Path_10" data-name="Path 10" class="cls-2" d="M175.44,364.88c-46.1,0,188.38-170.59,117.74-180.69a91.89,91.89,0,0,1,19-2.53c7.59,0,14.59,5.57,15.16,16.43V348.45s0,15.17-35.25,16.43Z"/>
    <rect id="Rectangle_3" data-name="Rectangle 3" class="cls-1" x="108.28" y="32.56" width="183.22" height="138.99" rx="22.44"/>
    <g id="Group_5" data-name="Group 5">
      <circle id="Ellipse_7" data-name="Ellipse 7" class="cls-3" cx="248.01" cy="85.63" r="20.22"/>
      <path id="Path_13" data-name="Path 13" class="cls-4" d="M230.15,95.1a20.22,20.22,0,0,1,31.7-24.21"/>
      <path id="Path_14" data-name="Path 14" class="cls-4" d="M233.15,99.33a20.38,20.38,0,0,1-3-4.23"/>
      <circle id="Ellipse_8" data-name="Ellipse 8" cx="248.01" cy="85.63" r="9.48"/>
      <circle id="Ellipse_9" data-name="Ellipse 9" class="cls-5" cx="259.7" cy="74.89" r="8.21"/>
    </g>
    <g id="Group_4" data-name="Group 4">
      <circle id="Ellipse_4" data-name="Ellipse 4" class="cls-3" cx="150.72" cy="85.63" r="20.22"/>
      <path id="Path_11" data-name="Path 11" class="cls-4" d="M132.85,95.1a20.22,20.22,0,0,1,31.7-24.21"/>
      <path id="Path_12" data-name="Path 12" class="cls-4" d="M135.86,99.33a19.66,19.66,0,0,1-3-4.23"/>
      <circle id="Ellipse_5" data-name="Ellipse 5" cx="150.72" cy="85.63" r="9.48"/>
      <circle id="Ellipse_6" data-name="Ellipse 6" class="cls-5" cx="162.4" cy="74.89" r="8.21"/>
    </g>
    <path id="Path_15" data-name="Path 15" class="cls-3" d="M221.55,118.63a5,5,0,0,0-7,0,4.68,4.68,0,0,0-.73.93,15.46,15.46,0,0,1-27.42-.61,4.92,4.92,0,0,0-6.71-1.86,6.44,6.44,0,0,0-.8.57,19.6,19.6,0,0,0-7,14.57c0,12.15,12.44,22,27.8,22s27.8-9.86,27.8-22A19.25,19.25,0,0,0,221.55,118.63Z"/>
    <path id="Path_16" data-name="Path 16" class="cls-6" d="M185.27,151.12a3.48,3.48,0,0,1-2.09-3V148c0-4.16,7.26-7.53,16.21-7.53s16.22,3.36,16.22,7.53a4,4,0,0,1-.73,2.24,3.52,3.52,0,0,1-1.59,1.29A34.73,34.73,0,0,1,185.27,151.12Z"/>
    <path id="Path_17" data-name="Path 17" class="cls-7" d="M199.68,154.22s15.84-3.64,7.92-12.74c0,0,12.11,2.9,6.52,9.54A32.23,32.23,0,0,1,199.68,154.22Z"/>
    <path id="Path_9" data-name="Path 9" class="cls-3" d="M230.8,33.2a37.29,37.29,0,0,0-61.89.11Z"/>
  </g>
</svg>
