<svg id="Livello_1" data-name="Livello 1" xmlns="http://www.w3.org/2000/svg" viewBox="0 0 399.78 381.64">
  <defs>
    <style>
      .cls-1 {
        fill: #b47cdd;
      }

      .cls-2 {
        fill: none;
        stroke: #000;
        stroke-linecap: round;
        stroke-linejoin: round;
        stroke-width: 2.61px;
      }

      .cls-3 {
        fill: #ffde00;
      }

      .cls-4 {
        fill: #a63ad8;
      }

      .cls-5 {
        fill: #f2bd00;
      }

      .cls-6 {
        fill: #fff;
      }

      .cls-7 {
        fill: #fa7921;
      }

      .cls-8 {
        fill: #e56e1f;
      }
    </style>
  </defs>
  <title>Tavola disegno 2</title>
  <g>
    <rect id="Rectangle_11" data-name="Rectangle 11" class="cls-1" x="111.55" y="32.12" width="183.74" height="139.39" rx="34.87"/>
    <g id="Group_11" data-name="Group 11">
      <path id="Path_22" data-name="Path 22" class="cls-2" d="M267.62,77s13.82-1.8,11.95-7.42"/>
      <path id="Path_23" data-name="Path 23" class="cls-2" d="M258.27,67.66s13.82-1.81,12-7.42"/>
      <path id="Path_24" data-name="Path 24" class="cls-2" d="M263.88,71.4S277.7,69.59,275.83,64"/>
    </g>
    <g id="Group_12" data-name="Group 12">
      <path id="Path_25" data-name="Path 25" class="cls-2" d="M139.45,77s-13.82-1.8-11.95-7.42"/>
      <path id="Path_26" data-name="Path 26" class="cls-2" d="M148.81,67.66S135,65.85,136.86,60.24"/>
      <path id="Path_27" data-name="Path 27" class="cls-2" d="M143.2,71.4s-13.83-1.81-12-7.42"/>
    </g>
    <path id="Path_28" data-name="Path 28" class="cls-1" d="M306.44,365.36h-206a25,25,0,0,1-25-24.95V206.6a25,25,0,0,1,25-25H306.44a25,25,0,0,1,25,25h0V340.42A25,25,0,0,1,306.44,365.36Z"/>
    <path id="Path_29" data-name="Path 29" class="cls-3" d="M234.41,32.76a37.38,37.38,0,0,0-62.07.12Z"/>
    <path id="Path_30" data-name="Path 30" class="cls-4" d="M178.9,365.36c-46.23,0,188.91-171.06,118.07-181.2a92.27,92.27,0,0,1,19-2.53c7.62,0,14.63,5.58,15.2,16.46v150.8s0,15.2-35.35,16.46Z"/>
    <g id="Group_13" data-name="Group 13">
      <circle id="Ellipse_10" data-name="Ellipse 10" class="cls-3" cx="154.1" cy="85.34" r="20.27"/>
      <path id="Path_31" data-name="Path 31" class="cls-5" d="M136.19,94.84A20.28,20.28,0,0,1,168,70.55"/>
      <path id="Path_32" data-name="Path 32" class="cls-5" d="M139.21,99.08a20.38,20.38,0,0,1-3-4.24"/>
      <circle id="Ellipse_11" data-name="Ellipse 11" cx="154.1" cy="85.34" r="9.5"/>
      <circle id="Ellipse_12" data-name="Ellipse 12" class="cls-6" cx="165.82" cy="74.57" r="8.24"/>
    </g>
    <g id="Group_14" data-name="Group 14">
      <circle id="Ellipse_13" data-name="Ellipse 13" class="cls-3" cx="251.67" cy="85.34" r="20.27"/>
      <path id="Path_33" data-name="Path 33" class="cls-5" d="M233.76,94.84a20.28,20.28,0,0,1,31.79-24.29"/>
      <path id="Path_34" data-name="Path 34" class="cls-5" d="M236.77,99.08a20.38,20.38,0,0,1-3-4.24"/>
      <circle id="Ellipse_14" data-name="Ellipse 14" cx="251.67" cy="85.34" r="9.5"/>
      <circle id="Ellipse_15" data-name="Ellipse 15" class="cls-6" cx="263.39" cy="74.57" r="8.24"/>
    </g>
    <path id="Path_35" data-name="Path 35" class="cls-3" d="M225.14,118.43a5,5,0,0,0-7.06,0,5.13,5.13,0,0,0-.74.93,15.49,15.49,0,0,1-27.5-.61,4.91,4.91,0,0,0-6.72-1.86,4.55,4.55,0,0,0-.81.57,19.59,19.59,0,0,0-7,14.6c0,12.19,12.48,22.07,27.87,22.07s27.88-9.88,27.88-22.07A19.29,19.29,0,0,0,225.14,118.43Z"/>
    <path id="Path_36" data-name="Path 36" class="cls-7" d="M188.75,151a3.51,3.51,0,0,1-2.09-3v-.17c0-4.19,7.29-7.56,16.26-7.56s16.27,3.38,16.27,7.56a4,4,0,0,1-.74,2.24,3.47,3.47,0,0,1-1.59,1.29A34.82,34.82,0,0,1,188.75,151Z"/>
    <path id="Path_37" data-name="Path 37" class="cls-8" d="M203.2,154.12s15.89-3.66,8-12.77c0,0,12.14,2.91,6.53,9.57A32.37,32.37,0,0,1,203.2,154.12Z"/>
  </g>
</svg>
