<svg id="Livello_1" data-name="Livello 1" xmlns="http://www.w3.org/2000/svg" viewBox="0 0 399.78 449.31">
  <defs>
    <style>
      .cls-1 {
        fill: #b47cdd;
      }

      .cls-2 {
        fill: #a63ad8;
      }

      .cls-3 {
        fill: #ffd500;
      }

      .cls-4 {
        fill: #f5ad00;
      }

      .cls-5 {
        fill: #fff;
      }

      .cls-6 {
        fill: #040405;
      }

      .cls-7, .cls-9 {
        fill: none;
      }

      .cls-7 {
        stroke: #b47cdd;
        stroke-miterlimit: 10;
        stroke-width: 10px;
      }

      .cls-8 {
        fill: #ffdf00;
      }

      .cls-9 {
        stroke: #ffdf00;
        stroke-linecap: round;
        stroke-linejoin: round;
        stroke-width: 3.03px;
      }
    </style>
  </defs>
  <path id="Path_8" data-name="Path 8" class="cls-1" d="M305.16,432.46H83.75a16.86,16.86,0,0,1-16.86-16.85h0V266.19a16.85,16.85,0,0,1,16.86-16.85H305.16A16.85,16.85,0,0,1,322,266.19V415.6a16.85,16.85,0,0,1-16.85,16.86Z"/>
  <path id="Path_10" data-name="Path 10" class="cls-2" d="M170,432.46c-46.08,0,188.27-170.49,117.68-180.59a91.7,91.7,0,0,1,18.94-2.53c7.59,0,14.58,5.57,15.16,16.41V416s0,15.16-35.24,16.42Z"/>
  <rect id="Rectangle_3" data-name="Rectangle 3" class="cls-1" x="102.89" y="100.32" width="183.12" height="138.92" rx="9.74"/>
  <circle id="Ellipse_4" data-name="Ellipse 4" class="cls-3" cx="145.31" cy="153.36" r="20.21"/>
  <path id="Path_11" data-name="Path 11" class="cls-4" d="M127.46,162.83a20.21,20.21,0,0,1,31.67-24.21"/>
  <path id="Path_12" data-name="Path 12" class="cls-4" d="M130.45,167.05a20.12,20.12,0,0,1-3-4.23"/>
  <circle id="Ellipse_6" data-name="Ellipse 6" class="cls-5" cx="156.99" cy="142.62" r="8.21"/>
  <circle id="Ellipse_7" data-name="Ellipse 7" class="cls-3" cx="242.55" cy="153.36" r="20.21"/>
  <path id="Path_13" data-name="Path 13" class="cls-4" d="M224.7,162.83a20.21,20.21,0,0,1,31.67-24.21"/>
  <path id="Path_14" data-name="Path 14" class="cls-4" d="M227.69,167.05a20.49,20.49,0,0,1-3-4.23"/>
  <circle id="Ellipse_9" data-name="Ellipse 9" class="cls-5" cx="254.23" cy="142.62" r="8.21"/>
  <circle id="Ellipse_5" data-name="Ellipse 5" class="cls-6" cx="145.3" cy="153.36" r="9.47"/>
  <circle id="Ellipse_8" data-name="Ellipse 8" class="cls-6" cx="242.55" cy="153.36" r="9.47"/>
  <path id="Path_9" data-name="Path 9" class="cls-3" d="M225.35,101a37.26,37.26,0,0,0-61.86.12Z"/>
  <path class="cls-7" d="M113,175.65s33.62-14.1,64.46,0"/>
  <path class="cls-7" d="M211.44,175.3s33.61-14.1,64.45,0"/>
  <path class="cls-8" d="M247.37,49.74l2.89-5.49a14.79,14.79,0,0,1,8.08,0A5.2,5.2,0,0,1,262,47.89a7.3,7.3,0,0,1-.12,3.71,29.79,29.79,0,0,1-3.13,6.51c-2,3.43-2.83,5.73-2.55,6.88a3.43,3.43,0,0,0,.41.81,7.55,7.55,0,0,1-3.37-.79,3.17,3.17,0,0,1-1.52-2.16,4.7,4.7,0,0,1,0-2.73,36.85,36.85,0,0,1,2.51-5,8.07,8.07,0,0,0,1.49-5.29,2.37,2.37,0,0,0-1.7-1.72,6,6,0,0,0-3.35,0A12,12,0,0,0,247.37,49.74Zm15,20.06a2,2,0,0,1-.66,2,5.11,5.11,0,0,1-2.57,1.41,4.57,4.57,0,0,1-2.74,0,2,2,0,0,1-1.5-1.45,2.28,2.28,0,0,1,.63-2A4.58,4.58,0,0,1,258,68.34a5.08,5.08,0,0,1,2.89,0A2.16,2.16,0,0,1,262.37,69.8Z"/>
  <path class="cls-8" d="M270.39,34.94l5.52-9.63c6.18-1.4,11.1-1.52,14.8-.33a9,9,0,0,1,6.64,6.1,12.06,12.06,0,0,1-.34,6.47,52.75,52.75,0,0,1-5.94,11.39q-5.65,9.09-4.91,12.11a5.18,5.18,0,0,0,.71,1.36,14.25,14.25,0,0,1-6.2-1.24,5.47,5.47,0,0,1-2.7-3.71,7.78,7.78,0,0,1,.22-4.77,63.64,63.64,0,0,1,4.72-8.56q3.7-6.06,2.89-9.23A4,4,0,0,0,282.73,32a12,12,0,0,0-6.16.18A23,23,0,0,0,270.39,34.94Zm27.12,34.33a3.64,3.64,0,0,1-1.29,3.56,9.91,9.91,0,0,1-4.74,2.5,9.07,9.07,0,0,1-5.11,0,3.66,3.66,0,0,1-2.69-2.5,3.9,3.9,0,0,1,1.21-3.66,8.89,8.89,0,0,1,4.53-2.52,9.52,9.52,0,0,1,5.29,0,3.71,3.71,0,0,1,2.8,2.62Z"/>
  <path class="cls-8" d="M304.83,53.3l3.81-7.25a19.33,19.33,0,0,1,10.56,0A6.83,6.83,0,0,1,324,50.81a9.72,9.72,0,0,1-.16,4.91,38.53,38.53,0,0,1-4,8.56q-4,6.8-3.37,9.09a4.33,4.33,0,0,0,.52,1,9.63,9.63,0,0,1-4.44-1,4.34,4.34,0,0,1-2-2.84,6.29,6.29,0,0,1,.1-3.62,48.06,48.06,0,0,1,3.27-6.44c1.72-3,2.37-5.35,2-7a3.1,3.1,0,0,0-2.22-2.26,7.67,7.67,0,0,0-4.4,0A14.69,14.69,0,0,0,304.83,53.3ZM324.6,79.71a2.8,2.8,0,0,1-.87,2.69,6.79,6.79,0,0,1-3.37,1.86,6.27,6.27,0,0,1-3.64,0,2.78,2.78,0,0,1-2-2,3,3,0,0,1,.83-2.77,6.14,6.14,0,0,1,3.19-1.86,6.64,6.64,0,0,1,3.8,0,2.88,2.88,0,0,1,2.08,2.1Z"/>
  <path class="cls-9" d="M183.08,208s19.29-24.24,44.43-10.1"/>
</svg>
