<svg id="Livello_1" data-name="Livello 1" xmlns="http://www.w3.org/2000/svg" viewBox="0 0 175 209">
  <defs>
    <style>
      .cls-1 {
        fill: #56beec;
      }

      .cls-2 {
        fill: #00b9e6;
      }

      .cls-3 {
        fill: #ffdf00;
      }

      .cls-4 {
        fill: #f2bd00;
      }

      .cls-5 {
        fill: #fff;
      }

      .cls-6, .cls-7 {
        fill: none;
      }

      .cls-6 {
        stroke: #5abfea;
        stroke-miterlimit: 10;
        stroke-width: 5px;
      }

      .cls-7 {
        stroke: #ffdf00;
        stroke-linecap: round;
        stroke-linejoin: round;
        stroke-width: 1.5px;
      }
    </style>
  </defs>
  <title>Tavola disegno 7</title>
  <path id="Path_8" data-name="Path 8" class="cls-1" d="M138.59,202.6H28.13a8.42,8.42,0,0,1-8.41-8.41h0V119.64a8.41,8.41,0,0,1,8.41-8.4H138.59a8.4,8.4,0,0,1,8.41,8.4h0v74.54a8.41,8.41,0,0,1-8.4,8.42Z"/>
  <path id="Path_10" data-name="Path 10" class="cls-2" d="M71.17,202.6c-23,0,93.94-85.07,58.71-90.1a45.22,45.22,0,0,1,9.48-1.26c3.78,0,7.27,2.77,7.56,8.19v75s0,7.57-17.58,8.2Z"/>
  <rect id="Rectangle_3" data-name="Rectangle 3" class="cls-1" x="37.68" y="36.89" width="91.36" height="69.31" rx="11.19"/>
  <g id="Group_5" data-name="Group 5">
    <circle id="Ellipse_7" data-name="Ellipse 7" class="cls-3" cx="107.36" cy="63.35" r="10.08"/>
    <path id="Path_13" data-name="Path 13" class="cls-4" d="M98.45,68.07A10.08,10.08,0,0,1,114.26,56"/>
    <path id="Path_14" data-name="Path 14" class="cls-4" d="M100,70.18a10.1,10.1,0,0,1-1.5-2.11"/>
    <circle id="Ellipse_8" data-name="Ellipse 8" cx="107.36" cy="63.35" r="4.73"/>
    <circle id="Ellipse_9" data-name="Ellipse 9" class="cls-5" cx="113.19" cy="57.99" r="4.09"/>
  </g>
  <g id="Group_4" data-name="Group 4">
    <circle id="Ellipse_4" data-name="Ellipse 4" class="cls-3" cx="58.84" cy="63.35" r="10.08"/>
    <path id="Path_11" data-name="Path 11" class="cls-4" d="M49.93,68.07A10.08,10.08,0,0,1,65.74,56"/>
    <path id="Path_12" data-name="Path 12" class="cls-4" d="M51.43,70.18a9.47,9.47,0,0,1-1.49-2.11"/>
    <circle id="Ellipse_5" data-name="Ellipse 5" cx="58.84" cy="63.35" r="4.73"/>
    <circle id="Ellipse_6" data-name="Ellipse 6" class="cls-5" cx="64.67" cy="57.99" r="4.09"/>
  </g>
  <path id="Path_9" data-name="Path 9" class="cls-3" d="M98.78,37.21a18.61,18.61,0,0,0-30.87,0Z"/>
  <path class="cls-6" d="M43,75s16.7-7,32,0"/>
  <path class="cls-6" d="M91.81,74.83s16.69-7,32,0"/>
  <path class="cls-7" d="M81,94s9.55-12,22-5"/>
  <path class="cls-3" d="M120.25,20.33l1.43-2.72a7.27,7.27,0,0,1,4,0,2.58,2.58,0,0,1,1.81,1.8,3.63,3.63,0,0,1-.06,1.84,14.67,14.67,0,0,1-1.55,3.22c-1,1.7-1.4,2.84-1.26,3.41a1.6,1.6,0,0,0,.2.4,3.72,3.72,0,0,1-1.67-.39,1.59,1.59,0,0,1-.75-1.07,2.29,2.29,0,0,1,0-1.35A18.55,18.55,0,0,1,123.64,23a4,4,0,0,0,.74-2.62,1.18,1.18,0,0,0-.84-.85,3,3,0,0,0-1.66,0A5.88,5.88,0,0,0,120.25,20.33Zm7.43,9.93a1,1,0,0,1-.33,1,2.53,2.53,0,0,1-1.27.7,2.31,2.31,0,0,1-1.36,0,1,1,0,0,1-.74-.72,1.13,1.13,0,0,1,.31-1,2.25,2.25,0,0,1,1.2-.7,2.47,2.47,0,0,1,1.43,0A1.08,1.08,0,0,1,127.68,30.26Z"/>
  <path class="cls-3" d="M131.65,13l2.73-4.77c3.06-.69,5.5-.75,7.33-.16A4.44,4.44,0,0,1,145,11.09a6,6,0,0,1-.17,3.2,26,26,0,0,1-2.94,5.64c-1.87,3-2.68,5-2.43,6a2.39,2.39,0,0,0,.35.67,7.06,7.06,0,0,1-3.07-.61,2.71,2.71,0,0,1-1.34-1.84,3.88,3.88,0,0,1,.11-2.36,31.43,31.43,0,0,1,2.34-4.24c1.22-2,1.7-3.52,1.43-4.57a2,2,0,0,0-1.52-1.46,5.92,5.92,0,0,0-3.05.09A11.35,11.35,0,0,0,131.65,13Zm13.43,17a1.8,1.8,0,0,1-.64,1.76A4.9,4.9,0,0,1,142.09,33a4.52,4.52,0,0,1-2.53,0,1.81,1.81,0,0,1-1.33-1.24,1.92,1.92,0,0,1,.6-1.81,4.43,4.43,0,0,1,2.24-1.25,4.74,4.74,0,0,1,2.62,0A1.85,1.85,0,0,1,145.08,30Z"/>
  <path class="cls-3" d="M148.7,22.09l1.89-3.59a9.58,9.58,0,0,1,5.23,0,3.38,3.38,0,0,1,2.38,2.36,4.82,4.82,0,0,1-.08,2.43,19.31,19.31,0,0,1-2,4.24q-2,3.36-1.67,4.5a2.2,2.2,0,0,0,.26.51,4.79,4.79,0,0,1-2.2-.5,2.15,2.15,0,0,1-1-1.41,3.11,3.11,0,0,1,.05-1.79,23.34,23.34,0,0,1,1.62-3.19c.85-1.5,1.17-2.65,1-3.45a1.54,1.54,0,0,0-1.1-1.12,3.85,3.85,0,0,0-2.18,0A7.35,7.35,0,0,0,148.7,22.09Zm9.79,13.08a1.38,1.38,0,0,1-.43,1.33,3.35,3.35,0,0,1-1.67.92,3.12,3.12,0,0,1-1.8,0,1.37,1.37,0,0,1-1-1,1.49,1.49,0,0,1,.41-1.37,3,3,0,0,1,1.58-.92,3.22,3.22,0,0,1,1.88,0A1.42,1.42,0,0,1,158.49,35.17Z"/>
</svg>
