<svg id="Livello_1" data-name="Livello 1" xmlns="http://www.w3.org/2000/svg" viewBox="0 0 1033 277">
  <defs>
    <style>
      .cls-1 {
        fill: #5bc0eb;
      }

      .cls-2 {
        fill: #fa7921;
      }

      .cls-3 {
        fill: #9bc53d;
      }

      .cls-4 {
        fill: #e55934;
      }

      .cls-5 {
        fill: #ffde00;
      }

      .cls-6 {
        fill: #f2bd00;
      }

      .cls-7 {
        fill: #fcf7f7;
      }
    </style>
  </defs>
  <title>Tavola disegno 7</title>
  <g>
    <path id="Path_1" data-name="Path 1" class="cls-1" d="M748,92.05Q763.41,78.47,777.51,73t31.28-4.17q26.26,2,40,19.28t11.65,45.8l-6.2,80.9a20.2,20.2,0,0,1-21.67,18.59l-37.59-2.88a20.18,20.18,0,0,1-18.58-21.67l5.85-76.37c.41-5.34-.67-9.66-3.23-13a14.1,14.1,0,0,0-10.64-5.5,23.27,23.27,0,0,0-7.78.88,29.76,29.76,0,0,0-7.68,3.16l-6.78,88.5a20.17,20.17,0,0,1-21.67,18.58l-37.58-2.87a20.17,20.17,0,0,1-18.58-21.66h0l5.85-76.38q.57-7.59-3-12.76t-10.89-5.73a21.91,21.91,0,0,0-7.79,1,33.3,33.3,0,0,0-7.69,3.3L638,198.25a20.18,20.18,0,0,1-21.67,18.58l-42.11-3.22a20.2,20.2,0,0,1-18.59-21.67l9.21-120.22a20.19,20.19,0,0,1,21.67-18.59h0l42.12,3.23A20.18,20.18,0,0,1,647.21,78h0q21.49-19.93,51.09-17.67,18,1.38,30,9.07T748,92.05Z"/>
    <path id="Path_2" data-name="Path 2" class="cls-2" d="M487.49,62.57q24.42-4.71,46,2.15a74,74,0,0,1,36.38,24.84q14.82,18.24,19.78,44h0a5.23,5.23,0,0,1-4.13,6.11h0l-77.84,15a37.57,37.57,0,0,0,8,9.56,38.23,38.23,0,0,0,10.5,6.42,42.1,42.1,0,0,0,12.21,2.95,47.44,47.44,0,0,0,13.4-.74,70.7,70.7,0,0,0,12.5-3.64,68.18,68.18,0,0,0,11.23-5.64,56,56,0,0,0,9.4-7.39l.08-.08a5.62,5.62,0,0,1,9.46,2.94h0a41,41,0,0,1-8.59,33.88,80.43,80.43,0,0,1-16.3,15q-17.43,12-42,16.74A116,116,0,0,1,501.3,227a98.43,98.43,0,0,1-23.88-3.49,81.12,81.12,0,0,1-20.73-9,76.82,76.82,0,0,1-16.87-14,77.77,77.77,0,0,1-12.37-18.65A89.78,89.78,0,0,1,420.18,159q-4.47-23.24,2.37-43.47a73.83,73.83,0,0,1,23.76-34.26Q463.34,67.23,487.49,62.57Zm10,65.32,38.2-7.37q-2.61-11.47-9.24-17.21a17.39,17.39,0,0,0-15.41-4q-7.87,1.53-11.84,9.23-4,7.44-2,17.68Z"/>
    <path id="Path_3" data-name="Path 3" class="cls-3" d="M329.29,87.89q14.31-14.7,27.94-21.25t30.88-6.55q26.34,0,41.31,16.17T444.52,121v81.14a20.19,20.19,0,0,1-20.18,20.19H386.63a20.19,20.19,0,0,1-20.18-20.19V125.59q0-8-4.21-12.7a14.13,14.13,0,0,0-11-4.68,23.79,23.79,0,0,0-7.69,1.47,30.41,30.41,0,0,0-7.42,3.74v88.77a20.18,20.18,0,0,1-20.18,20.18h-37.7A20.19,20.19,0,0,1,258,202.19v-76.6q0-7.62-3.94-12.5t-11.3-4.88a21.84,21.84,0,0,0-7.69,1.6,33.56,33.56,0,0,0-7.41,3.88v88.49a20.19,20.19,0,0,1-20.19,20.19H165.27a20.19,20.19,0,0,1-20.18-20.19V81.61a20.19,20.19,0,0,1,20.18-20.19h42.24A20.19,20.19,0,0,1,227.7,81.61h0q19.92-21.52,49.59-21.52,18,0,30.62,6.75T329.29,87.89Z"/>
    <path id="Path_5" data-name="Path 5" class="cls-4" d="M171.49,75.21a19.69,19.69,0,0,1-25.58,11,5.49,5.49,0,0,1-.51-.21c-.75-.31-1.5-.61-2.25-.88A44.43,44.43,0,0,0,124.21,82a16.68,16.68,0,0,0-9.53,3.34,8,8,0,0,0-3.2,7.15A11.05,11.05,0,0,0,117.7,102,39.37,39.37,0,0,0,126,104.8q5.4,1.33,13.4,2.46,25.63,3.93,38.32,15.36t14.11,30.22q1.94,25.07-17.11,40.73t-50.89,18.25a181.82,181.82,0,0,1-20.35.36q-10.76-.39-23.06-1.72a219.38,219.38,0,0,1-23.76-3.87l-1.76-.4a19.63,19.63,0,0,1-14.72-23.53c.13-.54.28-1.08.45-1.61l.11-.36A19.72,19.72,0,0,1,65.66,168.1a18.88,18.88,0,0,1,2.9,1.21c.69.35,1.4.68,2.11,1Q83.44,176,95.3,175.13q7.2-.56,11.28-4.08a9.82,9.82,0,0,0,3.7-8.6,11.36,11.36,0,0,0-6-9.46q-5.54-3.19-16.7-5.29-29.78-5.35-41.69-17.44Q33.8,118,32.61,102.45,30.78,78.72,50.14,63.7t57-17.78a204.17,204.17,0,0,1,38.85.5c3.85.43,7.59,1,11.25,1.66A19.58,19.58,0,0,1,171.77,74.5Z"/>
    <g id="Group_1" data-name="Group 1">
      <circle id="Ellipse_1" data-name="Ellipse 1" class="cls-5" cx="892.28" cy="152.32" r="95.65"/>
      <path id="Path_6" data-name="Path 6" class="cls-6" d="M807.78,197.16a95.66,95.66,0,0,1,150-114.58"/>
      <path id="Path_7" data-name="Path 7" class="cls-6" d="M822,217.15a96,96,0,0,1-14.18-20"/>
      <circle id="Ellipse_2" data-name="Ellipse 2" cx="892.28" cy="152.32" r="44.83"/>
      <circle id="Ellipse_3" data-name="Ellipse 3" class="cls-7" cx="947.58" cy="101.51" r="38.86"/>
    </g>
  </g>
</svg>
