<svg id="Livello_1" data-name="Livello 1" xmlns="http://www.w3.org/2000/svg" xmlns:xlink="http://www.w3.org/1999/xlink" viewBox="0 0 1366 1024">
  <defs>
    <style>
      .cls-1, .cls-11 {
        fill: none;
      }

      .cls-2 {
        fill: #eb6c6e;
      }

      .cls-3 {
        fill: #5bc0eb;
      }

      .cls-4 {
        fill: #fff;
        stroke: #28e8e8;
        stroke-miterlimit: 10;
        stroke-width: 1.48px;
      }

      .cls-5 {
        fill: #e9a453;
      }

      .cls-6 {
        fill: #fffefa;
      }

      .cls-7 {
        fill: #ffde00;
      }

      .cls-8 {
        fill: #fef2bb;
      }

      .cls-9 {
        fill: #28e8e8;
      }

      .cls-10 {
        fill: #9bc248;
      }

      .cls-11 {
        stroke: #e25a3c;
        stroke-linecap: round;
        stroke-linejoin: round;
        stroke-width: 1.5px;
      }

      .cls-12 {
        fill: #ffbf40;
      }

      .cls-13 {
        fill: #f77931;
      }

      .cls-14 {
        clip-path: url(#clip-path);
      }

      .cls-15 {
        clip-path: url(#clip-path-2);
      }

      .cls-16, .cls-19 {
        opacity: 0.5;
      }

      .cls-16 {
        fill: url(#Nuovo_campione_pattern_6);
      }

      .cls-17 {
        clip-path: url(#clip-path-3);
      }

      .cls-18 {
        clip-path: url(#clip-path-4);
      }

      .cls-19 {
        fill: url(#Nuovo_campione_pattern_9);
      }
    </style>
    <clipPath id="clip-path">
      <rect class="cls-1" x="25.74" width="1306.26" height="1024"/>
    </clipPath>
    <clipPath id="clip-path-2">
      <rect class="cls-1" x="-238.81" y="-121.51" width="1729.03" height="1296.14"/>
    </clipPath>
    <pattern id="Nuovo_campione_pattern_6" data-name="Nuovo campione pattern 6" width="500" height="403.39" patternTransform="translate(-875.29 -1142) scale(1.34)" patternUnits="userSpaceOnUse" viewBox="0 0 500 403.39">
      <rect class="cls-1" width="500" height="403.39"/>
      <g>
        <path class="cls-2" d="M378.54,382.76s-12.69-6.69-23.12,5.84c-6,7.24-12.33,18.72-16.59,27.14-1.08,2.13,2.15,4.81,4.06,3.37,7.91-6,18.83-13.5,23.84-13.38l16.12-19.38Z"/>
        <path class="cls-3" d="M449.25,339.51a3.06,3.06,0,0,1,2.35,2c2.14,5.82,8.61,26,2,41-5.44,12.32-18.36,22.06-29.52,35.48-27.31,32.81-32.92,19.64-45.35,9.3s-27-13.95.33-46.76c11.1-13.34,18.45-27.9,29.52-35.48C422.22,335.68,443.15,338.44,449.25,339.51Z"/>
        <circle class="cls-4" cx="417.54" cy="380.01" r="15.2"/>
        <circle class="cls-4" cx="399.57" cy="402.19" r="9.64"/>
        <path class="cls-2" d="M456.07,364.58a81.25,81.25,0,0,0-4.83-23,3,3,0,0,0-2.34-1.94,80.06,80.06,0,0,0-23.57-.6,1.94,1.94,0,0,0-1.21.69h0a1.27,1.27,0,0,0-.21,1.28c1.45,3.6,9,19.7,30.58,25.34a1.1,1.1,0,0,0,1.1-.36h0A2.05,2.05,0,0,0,456.07,364.58Z"/>
      </g>
      <g>
        <g>
          <path class="cls-5" d="M71.73,388.82c-8.5,5.3-13.24,11.19-12.17,16.39,2.13,10.42,26.67,14.22,54.7,8.48s49.11-18.87,47-29.29-26.67-14.21-54.71-8.47c-14,2.86-26.29,7.58-34.8,12.89m-.62,4.36c7.87-6,21.3-11.63,36-14.63,24.13-4.94,48-2,49.86,7s-20.32,18.17-44.45,23.11S65.8,413.54,64,404.58c-.72-3.52,2-7.53,7.14-11.4"/>
          <g>
            <path class="cls-3" d="M114.26,413.69c-14.36,2.94-27.8,3.37-37.78,1.7a39.67,39.67,0,0,0,74-15.48C141.91,405.57,129.06,410.66,114.26,413.69Z"/>
            <path class="cls-3" d="M150.63,395.1a39,39,0,0,0-.79-7.23,39.78,39.78,0,0,0-3.41-9.84c-9.58-2.56-24.42-2.53-39.36.52-14.47,3-27.73,8.51-35.64,14.4a39.39,39.39,0,0,0,.7,10.83,39.8,39.8,0,0,0,2.3,7.45c9.2,1.6,23.32.45,38.05-2.56C127.94,405.5,142.59,400.58,150.63,395.1Z"/>
            <path class="cls-3" d="M109.93,388.85c14.33-2.93,45.52.52,34.31-14.63A39.66,39.66,0,0,0,72,388.67C67.28,409.69,96,391.69,109.93,388.85Z"/>
          </g>
        </g>
        <ellipse class="cls-6" cx="96.41" cy="389.35" rx="8.9" ry="13.34" transform="translate(-303.66 360.63) rotate(-71.99)"/>
      </g>
      <g>
        <g>
          <path class="cls-7" d="M125.5,228.51h0c12.29,11,17,21.16,1.92,26.43L93.56,266.8l6.23-36.5C102.56,214.08,113.22,217.56,125.5,228.51Z"/>
          <path class="cls-8" d="M121.33,234.43h0c7.58,6.75,10.46,13,1.19,16.29L101.64,258l3.84-22.5C107.19,225.53,113.76,227.67,121.33,234.43Z"/>
          <path class="cls-9" d="M121.78,220.28h0a1.68,1.68,0,0,0,.1,2.5l11.39,9.48a1.85,1.85,0,0,0,2.61-.24h0S127.66,222.77,121.78,220.28Z"/>
          <path class="cls-2" d="M128.54,181.07s-12.69-6.7-23.12,5.84c-6,7.23-12.33,18.71-16.59,27.13-1.08,2.13,2.15,4.81,4.06,3.37,7.91-6,18.83-13.5,23.84-13.38l16.12-19.37Z"/>
          <path class="cls-2" d="M171.93,217.17s8.89,11.26-1.54,23.79c-6,7.24-16.16,15.53-23.67,21.25-1.89,1.45-5.12-1.24-4.05-3.37,4.47-8.88,9.85-21,8.82-25.88l16.13-19.38Z"/>
          <path class="cls-3" d="M199.25,137.81a3.05,3.05,0,0,1,2.35,2c2.14,5.81,8.61,26,2,41-5.44,12.31-18.36,22.05-29.52,35.47-27.31,32.82-32.92,19.64-45.35,9.3s-27-13.94.33-46.76c11.1-13.34,18.45-27.9,29.52-35.47C172.22,134,193.15,136.74,199.25,137.81Z"/>
          <path class="cls-2" d="M127.26,220.71c-2.37,2.85-6.69,11.7-8.42,15.34a.46.46,0,0,0,.68.57c3.27-2.37,11.18-8.22,13.55-11.08a12.39,12.39,0,0,0,2.52-6.95,1.56,1.56,0,0,0-2-1.62A12.41,12.41,0,0,0,127.26,220.71Z"/>
          <circle class="cls-4" cx="167.54" cy="178.32" r="15.2"/>
          <circle class="cls-4" cx="149.57" cy="200.49" r="9.64"/>
          <path class="cls-2" d="M206.07,162.89a81.42,81.42,0,0,0-4.83-23A3.06,3.06,0,0,0,198.9,138a79.8,79.8,0,0,0-23.57-.59,1.88,1.88,0,0,0-1.21.68h0a1.28,1.28,0,0,0-.21,1.29c1.45,3.59,9,19.69,30.58,25.33a1.11,1.11,0,0,0,1.1-.35h0A2.07,2.07,0,0,0,206.07,162.89Z"/>
        </g>
        <g>
          <g>
            <path class="cls-5" d="M321.73,187.12c-8.5,5.3-13.24,11.19-12.17,16.4,2.13,10.41,26.67,14.21,54.7,8.48s49.11-18.88,47-29.29-26.67-14.22-54.71-8.48c-14,2.87-26.29,7.59-34.8,12.89m-.62,4.37c7.87-6,21.3-11.64,36-14.63,24.13-4.94,48-2,49.86,7S386.61,202,362.48,207s-46.68,4.88-48.51-4.09c-.72-3.52,2-7.52,7.14-11.39"/>
            <g>
              <path class="cls-3" d="M364.26,212c-14.36,2.94-27.8,3.36-37.78,1.69a39.67,39.67,0,0,0,74-15.48C391.91,203.88,379.06,209,364.26,212Z"/>
              <path class="cls-3" d="M400.63,193.4a38.81,38.81,0,0,0-.79-7.22,39.71,39.71,0,0,0-3.41-9.85c-9.58-2.55-24.42-2.53-39.36.53-14.47,3-27.73,8.5-35.64,14.4a39.34,39.34,0,0,0,.7,10.82,39.8,39.8,0,0,0,2.3,7.45c9.2,1.6,23.32.45,38.05-2.56C377.94,203.81,392.59,198.89,400.63,193.4Z"/>
              <path class="cls-3" d="M359.93,187.15c14.33-2.93,45.52.53,34.31-14.63A39.66,39.66,0,0,0,322,187C317.28,208,346,190,359.93,187.15Z"/>
            </g>
          </g>
          <ellipse class="cls-6" cx="346.41" cy="187.65" rx="8.9" ry="13.34" transform="translate(60.84 459.05) rotate(-71.99)"/>
        </g>
      </g>
      <g>
        <path class="cls-7" d="M375.5,26.82h0c12.29,11,17,21.16,1.92,26.43L343.56,65.1l6.23-36.5C352.56,12.38,363.22,15.87,375.5,26.82Z"/>
        <path class="cls-8" d="M371.33,32.73h0c7.58,6.75,10.46,13,1.19,16.29l-20.88,7.31,3.84-22.5C357.19,23.83,363.76,26,371.33,32.73Z"/>
        <path class="cls-9" d="M371.78,18.59h0a1.67,1.67,0,0,0,.1,2.49l11.39,9.48a1.85,1.85,0,0,0,2.61-.24h0S377.66,21.07,371.78,18.59Z"/>
        <path class="cls-2" d="M378.54-20.63s-12.69-6.7-23.12,5.84c-6,7.23-12.33,18.71-16.59,27.13-1.08,2.13,2.15,4.82,4.06,3.38,7.91-6,18.83-13.51,23.84-13.39L382.85-17Z"/>
        <path class="cls-2" d="M421.93,15.47s8.89,11.26-1.54,23.8c-6,7.23-16.16,15.52-23.67,21.25-1.89,1.44-5.12-1.25-4.05-3.38,4.47-8.88,9.85-21,8.82-25.88l16.13-19.38Z"/>
        <path class="cls-3" d="M449.25-63.89a3.07,3.07,0,0,1,2.35,2c2.14,5.82,8.61,26,2,41-5.44,12.31-18.36,22.05-29.52,35.48-27.31,32.81-32.92,19.64-45.35,9.29s-27-13.94.33-46.75c11.1-13.35,18.45-27.9,29.52-35.48C422.22-67.71,443.15-64.95,449.25-63.89Z"/>
        <path class="cls-2" d="M377.26,19c-2.37,2.86-6.69,11.7-8.42,15.34a.46.46,0,0,0,.68.57c3.27-2.37,11.18-8.22,13.55-11.08a12.34,12.34,0,0,0,2.52-6.94,1.56,1.56,0,0,0-1.95-1.63A12.41,12.41,0,0,0,377.26,19Z"/>
        <circle class="cls-4" cx="399.57" cy="-1.2" r="9.64"/>
      </g>
      <g>
        <path class="cls-5" d="M71.73-14.58C63.23-9.27,58.49-3.39,59.56,1.82,61.69,12.23,86.23,16,114.26,10.3s49.11-18.88,47-29.29-26.67-14.22-54.71-8.48c-14,2.87-26.29,7.59-34.8,12.89m-.62,4.37c7.87-6,21.3-11.63,36-14.63,24.13-4.94,48-2,49.86,7S136.61.34,112.48,5.27,65.8,10.15,64,1.19c-.72-3.52,2-7.53,7.14-11.4"/>
        <g>
          <path class="cls-3" d="M114.26,10.3C99.9,13.24,86.46,13.67,76.48,12a39.68,39.68,0,0,0,42.46,19.3,39.67,39.67,0,0,0,31.5-34.77C141.91,2.18,129.06,7.27,114.26,10.3Z"/>
          <path class="cls-3" d="M150.63-8.3a38.91,38.91,0,0,0-.79-7.22,39.85,39.85,0,0,0-3.41-9.85c-9.58-2.55-24.42-2.53-39.36.53-14.47,3-27.73,8.5-35.64,14.4A39.34,39.34,0,0,0,72.13.38a39.67,39.67,0,0,0,2.3,7.46c9.2,1.59,23.32.45,38.05-2.57C127.94,2.11,142.59-2.81,150.63-8.3Z"/>
        </g>
      </g>
    </pattern>
    <clipPath id="clip-path-3">
      <rect class="cls-1" x="1459" width="1333" height="1020.6"/>
    </clipPath>
    <clipPath id="clip-path-4">
      <rect class="cls-1" x="1204.84" y="-71.48" width="1808.22" height="1355.5"/>
    </clipPath>
    <pattern id="Nuovo_campione_pattern_9" data-name="Nuovo campione pattern 9" width="480" height="357.38" patternTransform="translate(-1224.22 -1181.5) scale(1.4)" patternUnits="userSpaceOnUse" viewBox="0 0 480 357.38">
      <rect class="cls-1" width="480" height="357.38"/>
      <path class="cls-10" d="M421.93,369.7c0,11.34-1.84,15.16-5.54,22.68.6,5.08,1.85,11.34,1.85,15.06H395.76c3.76-7.48,3.76-13.15,3.76-18.82-11.94,6.2-22.62,7.58-35.54,7.58-3.76,7.52-3.83,11.34-1.92,17.18H339.58c1.91-5.84,1.91-11.51,0-19.09-39.3-9.43-48.59-24.59-44.83-58.62,5.6,20.84,16.81,32.18,35.47,32.18,11.27,0,28.15-15.16,46.81-20.83,37.45-9.43,56.57-5.94,47.21-36.14-14.9,3.7-26.11,1.85-26.11-7.45,0-7.45,11.21-13.05,22-13.05C453.78,292.29,446.26,352.69,421.93,369.7Zm-5.14-70a1.85,1.85,0,1,0,3.69,0,1.85,1.85,0,0,0-3.69,0ZM396,402c-1.65-.14-2-.4-3.43-1.85,1.52-3,4.29-4.81,4.22-8.37a3.6,3.6,0,0,0,.73-.27A36.1,36.1,0,0,1,396,402Zm-58-6.27c1.19,5.34,1.45,9.63.66,13.72-3.43-.07-7.65-.14-9.36-1.85,1.71-3.43,3.36-8.44,2.17-13.58C333.51,394.62,335.69,395.21,338,395.74Z"/>
      <g>
        <path class="cls-11" d="M111.27,293.88l65.92,74.28a35.25,35.25,0,0,1-54,45.35L56.27,332.88"/>
        <line class="cls-11" x1="92.9" y1="298.55" x2="84.27" y2="288.88"/>
        <line class="cls-11" x1="142.27" y1="353.88" x2="98.25" y2="304.55"/>
        <line class="cls-11" x1="57.38" y1="305.31" x2="50.27" y2="296.88"/>
        <line class="cls-11" x1="109.27" y1="366.88" x2="62.49" y2="311.38"/>
        <circle class="cls-12" cx="167.27" cy="331.88" r="6"/>
        <circle class="cls-12" cx="149.77" cy="308.38" r="3"/>
        <line class="cls-11" x1="95.22" y1="326.44" x2="89.27" y2="319.88"/>
        <line class="cls-11" x1="118.27" y1="351.88" x2="101.11" y2="332.94"/>
      </g>
      <g>
        <circle class="cls-13" cx="390.27" cy="212.19" r="29.5"/>
        <path class="cls-11" d="M351.27,115.19l65.92,74.28a35.25,35.25,0,0,1-54,45.35l-66.94-80.63"/>
        <line class="cls-11" x1="332.9" y1="119.86" x2="324.27" y2="110.19"/>
        <line class="cls-11" x1="382.27" y1="175.19" x2="338.25" y2="125.86"/>
        <line class="cls-11" x1="297.38" y1="126.62" x2="290.27" y2="118.19"/>
        <line class="cls-11" x1="349.27" y1="188.19" x2="302.49" y2="132.69"/>
        <circle class="cls-12" cx="407.27" cy="153.19" r="6"/>
        <circle class="cls-12" cx="389.77" cy="129.69" r="3"/>
        <circle class="cls-12" cx="315.77" cy="211.69" r="6"/>
        <circle class="cls-12" cx="344.77" cy="234.69" r="3"/>
        <line class="cls-11" x1="335.22" y1="147.75" x2="329.27" y2="141.19"/>
        <line class="cls-11" x1="358.27" y1="173.19" x2="341.11" y2="154.25"/>
        <path class="cls-10" d="M181.93,191c0,11.34-1.84,15.16-5.54,22.68.6,5.08,1.85,11.34,1.85,15.06H155.76c3.76-7.48,3.76-13.15,3.76-18.82-11.94,6.2-22.62,7.58-35.54,7.58-3.76,7.52-3.83,11.34-1.92,17.18H99.58c1.91-5.84,1.91-11.51,0-19.09C60.28,206.17,51,191,54.75,157c5.6,20.83,16.81,32.17,35.47,32.17,11.27,0,28.15-15.16,46.81-20.83,37.45-9.43,56.57-5.94,47.21-36.14-14.9,3.7-26.11,1.85-26.11-7.45,0-7.45,11.21-13,22-13C213.78,113.6,206.26,174,181.93,191Zm-5.14-70a1.85,1.85,0,1,0,1.85-1.85A1.86,1.86,0,0,0,176.79,121ZM156,223.32c-1.65-.14-2-.4-3.43-1.85,1.52-3,4.29-4.81,4.22-8.37a3.6,3.6,0,0,0,.73-.27A36.05,36.05,0,0,1,156,223.32Zm-58-6.27c1.19,5.34,1.45,9.63.66,13.72-3.43-.07-7.65-.13-9.36-1.85,1.71-3.43,3.36-8.44,2.17-13.58C93.51,215.93,95.69,216.53,98,217.05Z"/>
      </g>
      <path class="cls-10" d="M421.93,12.32c0,11.34-1.84,15.16-5.54,22.68.6,5.08,1.85,11.34,1.85,15.06H395.76c3.76-7.48,3.76-13.15,3.76-18.82-11.94,6.2-22.62,7.59-35.54,7.59-3.76,7.51-3.83,11.34-1.92,17.17H339.58c1.91-5.83,1.91-11.5,0-19.09C300.28,27.48,291,12.32,294.75-21.7c5.6,20.83,16.81,32.17,35.47,32.17,11.27,0,28.15-15.16,46.81-20.83,37.45-9.43,56.57-5.94,47.21-36.13-14.9,3.69-26.11,1.84-26.11-7.45,0-7.46,11.21-13.06,22-13.06C453.78-65.09,446.26-4.69,421.93,12.32Zm-5.14-70a1.86,1.86,0,0,0,1.85,1.91,1.86,1.86,0,0,0,1.84-1.91,1.84,1.84,0,0,0-1.84-1.85A1.85,1.85,0,0,0,416.79-57.7ZM396,44.63c-1.65-.13-2-.4-3.43-1.85,1.52-3,4.29-4.81,4.22-8.37a3.09,3.09,0,0,0,.73-.27A36.05,36.05,0,0,1,396,44.63Zm-58-6.27c1.19,5.34,1.45,9.63.66,13.72C335.23,52,331,52,329.3,50.23c1.71-3.43,3.36-8.44,2.17-13.58C333.51,37.24,335.69,37.84,338,38.36Z"/>
      <g>
        <circle class="cls-13" cx="150.27" cy="33.5" r="29.5"/>
        <path class="cls-11" d="M111.27-63.5l65.92,74.29a35.25,35.25,0,0,1-54,45.34L56.27-24.5"/>
        <line class="cls-11" x1="109.27" y1="9.5" x2="62.49" y2="-46"/>
        <circle class="cls-12" cx="75.77" cy="33" r="6"/>
        <circle class="cls-12" cx="104.77" cy="56" r="3"/>
      </g>
    </pattern>
  </defs>
  <title>pattern</title>
  <g class="cls-14">
    <g class="cls-15">
      <rect class="cls-16" x="-338.8" y="-159.49" width="1829.02" height="1371.1"/>
    </g>
  </g>
  <g class="cls-17">
    <g class="cls-18">
      <rect class="cls-19" x="1097.21" y="-111.19" width="1912.41" height="1433.6"/>
    </g>
  </g>
</svg>
