<svg id="Livello_1" data-name="Livello 1" xmlns="http://www.w3.org/2000/svg" viewBox="0 0 305 301">
  <defs>
    <style>
      .cls-1 {
        fill: #f0bb01;
      }

      .cls-2 {
        opacity: 0.47;
      }

      .cls-3 {
        fill: #ffc91d;
      }

      .cls-4 {
        fill: #eda71b;
      }
    </style>
  </defs>
  <title>img</title>
  <rect class="cls-1" x="29.5" y="28.5" width="246" height="246" rx="15.5"/>
  <g class="cls-2">
    <path class="cls-3" d="M159.88,226.09l-45.15-13.31L79.28,243.83l-2.57-48.66L36.83,169.08l43.56-16.77L91.2,105.14l29.49,38.3,46.56-3.06-25.33,40.44Z"/>
  </g>
  <path class="cls-3" d="M251.06,162.11,205.91,148.8l-35.46,31-2.57-48.66L128,105.09l43.57-16.76,10.81-47.17,29.49,38.3,46.56-3.06-25.34,40.43Z"/>
  <path class="cls-4" d="M210.34,214l-45.15-13.3-35.45,31-2.57-48.66L87.29,157l43.56-16.77L141.66,93l29.49,38.3,46.56-3.06-25.33,40.44Z"/>
</svg>
