<svg id="Livello_1" data-name="Livello 1" xmlns="http://www.w3.org/2000/svg" viewBox="0 0 305 301">
  <defs>
    <style>
      .cls-1 {
        fill: #fddc03;
      }

      .cls-2 {
        fill: #99c33e;
      }

      .cls-3 {
        fill: #f87921;
      }

      .cls-4 {
        fill: none;
        stroke: #e35935;
        stroke-linecap: round;
        stroke-linejoin: round;
        stroke-width: 1.5px;
      }

      .cls-5 {
        fill: #ffbf2d;
      }
    </style>
  </defs>
  <title>img</title>
  <rect class="cls-1" x="29.5" y="26" width="246" height="246" rx="15.5"/>
  <path class="cls-2" d="M234.35,131.6c-10.75,0-21.95,5.6-21.95,13.06,0,9.29,11.2,11.14,26.11,7.45,9.36,30.19-9.76,26.7-47.21,36.13-18.66,5.67-35.54,20.83-46.82,20.83-18.66,0-29.87-11.34-35.47-32.17-3.76,34,5.54,49.18,44.84,58.61,1.91,7.59,1.91,13.26,0,19.09h22.48c-1.91-5.83-1.85-9.66,1.91-17.17,12.92,0,23.61-1.39,35.54-7.59,0,5.67,0,11.34-3.76,18.82h22.49c0-3.72-1.26-10-1.85-15.06,3.69-7.52,5.54-11.34,5.54-22.68C260.53,193.91,268,133.51,234.35,131.6Zm-1.45,7.45a1.88,1.88,0,1,1-1.84,1.85A1.85,1.85,0,0,1,232.9,139.05Zm-21.1,93.69a3,3,0,0,1-.72.27c.06,3.56-2.71,5.4-4.22,8.37,1.38,1.45,1.78,1.72,3.43,1.85A36,36,0,0,0,211.8,232.74Zm-66.06,2.51c1.18,5.14-.47,10.15-2.18,13.58,1.71,1.72,5.93,1.78,9.36,1.85.79-4.09.53-8.38-.66-13.72C150,236.44,147.78,235.84,145.74,235.25Z"/>
  <g>
    <circle class="cls-3" cx="158.31" cy="141.5" r="29.5"/>
    <path class="cls-4" d="M119.31,44.5l65.92,74.29a35.25,35.25,0,0,1-54,45.34L64.31,83.5"/>
    <line class="cls-4" x1="100.94" y1="49.17" x2="92.31" y2="39.5"/>
    <line class="cls-4" x1="150.31" y1="104.5" x2="106.29" y2="55.17"/>
    <line class="cls-4" x1="65.42" y1="55.93" x2="58.31" y2="47.5"/>
    <line class="cls-4" x1="117.31" y1="117.5" x2="70.53" y2="62"/>
    <circle class="cls-5" cx="175.31" cy="82.5" r="6"/>
    <circle class="cls-5" cx="157.81" cy="59" r="3"/>
    <circle class="cls-5" cx="83.81" cy="141" r="6"/>
    <circle class="cls-5" cx="112.81" cy="164" r="3"/>
    <line class="cls-4" x1="103.26" y1="77.06" x2="97.31" y2="70.5"/>
    <line class="cls-4" x1="126.31" y1="102.5" x2="109.15" y2="83.56"/>
  </g>
</svg>
