<svg id="Livello_1" data-name="Livello 1" xmlns="http://www.w3.org/2000/svg" viewBox="0 0 305 301">
  <defs>
    <style>
      .cls-1 {
        fill: #60aa48;
      }

      .cls-2 {
        fill: #2982cc;
      }

      .cls-3 {
        fill: #23770b;
        stroke: #23770b;
        stroke-miterlimit: 10;
      }
    </style>
  </defs>
  <title>img</title>
  <rect class="cls-1" x="29.5" y="28.5" width="246" height="246" rx="15.5"/>
  <g>
    <circle class="cls-2" cx="158.72" cy="150.5" r="82.55"/>
    <path class="cls-3" d="M158.72,235.89a85.39,85.39,0,1,1,85.39-85.39A85.49,85.49,0,0,1,158.72,235.89Zm0-165.09a79.7,79.7,0,1,0,79.7,79.7A79.79,79.79,0,0,0,158.72,70.8Z"/>
    <path class="cls-3" d="M168.39,211.43a9.72,9.72,0,0,1-9-6.1l-3.12-7.8a10.16,10.16,0,0,1-.41-1.25l-5.39-21.59a4.07,4.07,0,0,0-.31-.82l-2.89-5.79a4,4,0,0,0-4.56-2.1l-2.76.69a9.71,9.71,0,0,1-8.41-1.84l-9-7.2a9.66,9.66,0,0,1-3.64-7.58V147a9.63,9.63,0,0,1,1.8-5.63l10.91-15.27a9.73,9.73,0,0,1,7.89-4.06h6a9.75,9.75,0,0,1,5,1.38l10.32,6.2h0a4,4,0,0,0,2.85.49l6.18-1.23a9.74,9.74,0,0,1,10.82,5.69l5.47,12.77a4.07,4.07,0,0,0,1.62,1.86l5.61,3.36a9.69,9.69,0,0,1,2.58,14.38l-5,6.23a4.08,4.08,0,0,0-.88,2.51v9a9.77,9.77,0,0,1-2.84,6.87l-3.09,3.08a4.43,4.43,0,0,0-.6.77l-6.8,11.34a9.73,9.73,0,0,1-5.25,4.21A9.51,9.51,0,0,1,168.39,211.43ZM143.7,160.16a9.64,9.64,0,0,1,8.64,5.38l2.9,5.79a10,10,0,0,1,.73,2l5.4,21.6a4.16,4.16,0,0,0,.16.5l3.13,7.81a4,4,0,0,0,7.16.57l6.8-11.33a9.8,9.8,0,0,1,1.46-1.87l3.08-3.09a4,4,0,0,0,1.18-2.83v-9a9.71,9.71,0,0,1,2.13-6.06l5-6.23a4,4,0,0,0-1.07-5.94l-5.6-3.37a9.6,9.6,0,0,1-3.93-4.49l-5.47-12.78a4,4,0,0,0-4.47-2.35l-6.18,1.24a9.64,9.64,0,0,1-6.9-1.2l-10.33-6.19a3.93,3.93,0,0,0-2.06-.58h-6a4,4,0,0,0-3.26,1.68l-10.91,15.27a4,4,0,0,0-.75,2.33v3.05a4,4,0,0,0,1.51,3.13l9,7.2a4,4,0,0,0,3.48.76l2.75-.68A9.39,9.39,0,0,1,143.7,160.16Z"/>
    <path class="cls-3" d="M201.42,207.43a2.9,2.9,0,0,1-2-.83l-5.69-5.7a2.86,2.86,0,0,1-.78-2.57l2.85-14.23a2.79,2.79,0,0,1,.78-1.45l8.54-8.54a2.84,2.84,0,0,1,4.8,1.45l2.85,14.23a2.88,2.88,0,0,1-.35,2l-8.54,14.23a2.87,2.87,0,0,1-2.1,1.36ZM198.81,198l2,2,6.1-10.16-1.59-7.94-4.17,4.17Z"/>
    <path class="cls-3" d="M165.29,69.39c-4.37,7.3-12.54,15.52-27.36,16.73a6.15,6.15,0,0,0-4.36,2.3l-.28.36a8.32,8.32,0,0,0-.07,10.4A8.93,8.93,0,0,0,143.88,102a20.1,20.1,0,0,1,7.18-1.54,40,40,0,0,1,15.67,2.3c8,2.77,19.09,9.34,26.87,24.9,0,0,1.9,3.61,5.25,4s7.19-2.25,11.54-7.51a10.07,10.07,0,0,1,7.76-3.67c.34,0,.68,0,1,.05a9.45,9.45,0,0,1,7.51,5,36.06,36.06,0,0,1,3,8,4.24,4.24,0,0,0,4.63,3.23c1.39-.19,2.77-.4,4.13-.62A79.4,79.4,0,0,0,165.29,69.39Z"/>
    <path class="cls-3" d="M83.54,144.81H76.61a2.83,2.83,0,0,1-2.11-.94,2.86,2.86,0,0,1-.72-2.2A84.94,84.94,0,0,1,91.57,97.78,2.84,2.84,0,0,1,95.08,97l10.68,5.34a15.7,15.7,0,0,1,8.45,11.44l.22,1.3A15.59,15.59,0,0,1,106,131.66l-5.57,2.79a10,10,0,0,0-3.83,3.39A15.66,15.66,0,0,1,83.54,144.81Zm-3.71-5.7h3.71a10,10,0,0,0,8.3-4.44,15.78,15.78,0,0,1,6-5.32l5.57-2.78A9.92,9.92,0,0,0,108.81,116l-.21-1.3h0a10,10,0,0,0-5.38-7.28l-8.58-4.29A79.25,79.25,0,0,0,79.83,139.11Z"/>
    <path class="cls-3" d="M108.14,218.56a2.83,2.83,0,0,1-1.75-.6,85.62,85.62,0,0,1-32.7-59.63,2.83,2.83,0,0,1,1.72-2.87l3-1.28h0a15.69,15.69,0,0,1,17.37,3.35L101,162.8a10.08,10.08,0,0,0,5.15,2.76A15.82,15.82,0,0,1,118.87,181v.79a21.52,21.52,0,0,1-3.64,12,16,16,0,0,0-2.58,7.09L111,216a2.83,2.83,0,0,1-2.83,2.53Zm-28.56-58.7a79.93,79.93,0,0,0,26.32,50.29l1.09-9.88a21.75,21.75,0,0,1,3.5-9.61,15.85,15.85,0,0,0,2.68-8.85V181a10.11,10.11,0,0,0-8.1-9.89A15.72,15.72,0,0,1,97,166.82l-5.27-5.27a10,10,0,0,0-11.1-2.14Z"/>
    <path class="cls-3" d="M190.37,157.45l-5.6-3.37a9.6,9.6,0,0,1-3.93-4.49l-5.47-12.78a4,4,0,0,0-4.48-2.35l-6.17,1.24a9.64,9.64,0,0,1-6.9-1.2l-10.33-6.2a4,4,0,0,0-2.06-.57h-6a4,4,0,0,0-3.26,1.68L125.3,144.68a4,4,0,0,0-.75,2.33v3.05a4,4,0,0,0,1.51,3.13l9,7.2a4,4,0,0,0,3.48.76l2.75-.69a9.84,9.84,0,0,1,2.39-.3,9.64,9.64,0,0,1,8.64,5.37l2.9,5.8a10,10,0,0,1,.73,2l5.4,21.59a3.8,3.8,0,0,0,.16.51l3.13,7.81a4,4,0,0,0,7.16.57l6.8-11.33a9.42,9.42,0,0,1,1.46-1.87l3.08-3.09a4,4,0,0,0,1.18-2.83v-9a9.69,9.69,0,0,1,2.13-6.06l5-6.23a4,4,0,0,0,.82-3.21A4,4,0,0,0,190.37,157.45Z"/>
    <path class="cls-3" d="M105.07,170.89A15.7,15.7,0,0,1,97,166.58l-5.27-5.28a10,10,0,0,0-11.1-2.14l-1,.46a80,80,0,0,0,26.32,50.29L107,200a21.79,21.79,0,0,1,3.5-9.62,15.8,15.8,0,0,0,2.68-8.84v-.79A10.11,10.11,0,0,0,105.07,170.89Z"/>
    <path class="cls-3" d="M91.84,134.67a15.78,15.78,0,0,1,6-5.32l5.57-2.78A9.92,9.92,0,0,0,108.81,116l-.21-1.3h0a10,10,0,0,0-5.38-7.28l-8.58-4.29a79.25,79.25,0,0,0-14.81,36h3.71A10,10,0,0,0,91.84,134.67Z"/>
    <polygon class="cls-3" points="201.19 186.06 198.81 197.95 200.85 200 206.95 189.83 205.36 181.89 201.19 186.06"/>
  </g>
</svg>
