<svg id="Livello_1" data-name="Livello 1" xmlns="http://www.w3.org/2000/svg" viewBox="0 0 305 301">
  <defs>
    <style>
      .cls-1 {
        fill: #d936b1;
      }

      .cls-2 {
        opacity: 0.21;
      }

      .cls-3 {
        fill: #8d0bb7;
      }
    </style>
  </defs>
  <title>img</title>
  <rect class="cls-1" x="29.5" y="31" width="246" height="246" rx="15.5"/>
  <g class="cls-2">
    <path class="cls-3" d="M217.14,155.71l-60.52-51.33-4.08-3.46a7.11,7.11,0,0,1-1.9-7.44s12.57-32.75,2.41-37.1l-.07,0C142.82,52,127.86,83.75,127.86,83.75a7.12,7.12,0,0,1-6.68,3.78L36.92,78.77s-3.43-.66-4.21,2.71c-.7,3,.37,4.08,3,5l76,27.58a5.11,5.11,0,0,1,3.11,6.12l-9.81,34.09a5.68,5.68,0,0,1-6,3.91l-22.81-2.94s-1.85-.25-2.57,2.13c-.51,1.71-.4,2.75,1.46,4,3,2.07,17.74,10.07,23.47,13.23v0a40.57,40.57,0,0,0-.45,9.66.36.36,0,0,0,.22.28.35.35,0,0,0,.35,0,39.76,39.76,0,0,0,6.66-7v0c6.25,1.95,22.21,7,25.8,7.79,2.2.46,3-.17,3.91-1.73,1.23-2.16-.24-3.33-.24-3.33l-17.9-14.44a5.66,5.66,0,0,1-1.29-7l17.81-30.65a5.13,5.13,0,0,1,6.59-2L212.42,162c2.47,1.22,4,1.24,5.68-1.33A3.57,3.57,0,0,0,217.14,155.71Z"/>
  </g>
  <path class="cls-3" d="M228.51,147,168,95.66,163.9,92.2a7.13,7.13,0,0,1-1.9-7.44S174.58,52,164.42,47.67l-.07,0C154.19,43.3,139.23,75,139.23,75a7.14,7.14,0,0,1-6.69,3.77L48.28,70.05a3.57,3.57,0,0,0-4.21,2.71c-.69,3,.38,4.09,3,5l76,27.58a5.11,5.11,0,0,1,3.11,6.12l-9.82,34.1a5.67,5.67,0,0,1-6,3.9l-22.82-2.94s-1.85-.25-2.56,2.13c-.51,1.71-.4,2.75,1.46,4,3,2.07,17.74,10.07,23.46,13.23v0a40.57,40.57,0,0,0-.45,9.66.35.35,0,0,0,.22.29.35.35,0,0,0,.34,0,40.37,40.37,0,0,0,6.67-7v0c6.24,1.95,22.21,7.06,25.79,7.79,2.21.47,3-.17,3.92-1.73,1.22-2.15-.24-3.33-.24-3.33l-17.91-14.44a5.66,5.66,0,0,1-1.29-7l17.82-30.64a5.11,5.11,0,0,1,6.59-2l72.45,35.77c2.47,1.23,4,1.24,5.68-1.33A3.58,3.58,0,0,0,228.51,147Z"/>
  <path class="cls-3" d="M267,173.77l-.16-2.9,1.64-.08c3.51-.19,5.73-.29,7-.33v-2.62s-114.67,4-114.67,24.49,43.79,44,43.58,55.71c-.28,16-44.51,23.75-59.13,29h58a59,59,0,0,1,5.89-3.41l1.26-.61,1.45,2.58-1.26.52c-.67.38-1.31.92-1.92.92h40.84s20.32-11.71,19.85-29.2c-.58-21.78-71.94-43.94-71.63-55.29.33-12,77.72-15.9,77.72-15.9v-3.24c-1.3,0-3.53.14-6.88.33ZM182.94,203l-.85-1.19c-2.64-3.73-3.93-7.13-3.93-10.41a6.8,6.8,0,0,1,2.72-5.12l1.09-1,1.91,2.19-1.09,1a4.11,4.11,0,0,0-1.72,2.93c0,2.62,1.14,5.55,3.4,8.73l.84,1.18ZM233,262.69c-3.66,3.39-8.44,6.09-13,8.57l-1.28.69-1.39-2.56,1.28-.69c4.42-2.39,9-5,12.43-8.14l1.06-1,2,2.13Zm-1-24.9,1.11,1c4.58,4,6.63,6.92,6.63,9.59a19.27,19.27,0,0,1-.66,4.81l-.38,1.4-2.81-.76.39-1.41a16.66,16.66,0,0,0,.55-4c0-1.18-1-3.4-5.63-7.42l-1.1-.95Zm-21.27-15.2,5,3.45c3.1,2.13,6,4.14,8.78,6.09l1.18.85L224,235.35l-1.19-.85c-2.72-1.94-5.64-3.94-8.73-6.06l-5-3.45Zm-7.51-5.32,1.17.86-1.71,2.35-1.18-.86a139.53,139.53,0,0,1-12-9.68l-1.08-1,2-2.14,1.07,1A137.11,137.11,0,0,0,203.23,217.27Zm3.2-36.9A118.83,118.83,0,0,0,191.8,184l-1.38.46-.92-2.76,1.38-.46a120.22,120.22,0,0,1,15-3.76l1.43-.28.55,2.86ZM232,176.63c-5.4.6-10.48,1.26-15.1,2l-1.43.21-.44-2.87,1.44-.22c4.65-.7,9.77-1.36,15.21-2l1.45-.16.32,2.89Zm25.82-2.28c-5.22.36-10.33.76-15.21,1.21l-1.45.13-.26-2.9,1.45-.13c4.89-.45,10-.85,15.27-1.22l1.45-.1.2,2.91Z"/>
</svg>
